<?xml version="1.0" encoding="utf-8"?>
<!-- Generator: Adobe Illustrator 27.0.0, SVG Export Plug-In . SVG Version: 6.00 Build 0)  -->
<svg version="1.1" id="Capa_1" xmlns="http://www.w3.org/2000/svg" xmlns:xlink="http://www.w3.org/1999/xlink" x="0px" y="0px"
	 viewBox="0 0 200 200" style="enable-background:new 0 0 200 200;" xml:space="preserve">
<style type="text/css">
	.st0{fill:#31BEBE;}
	.st1{fill:#FFFFFF;}
</style>
<rect x="-2" y="-4" class="st0" width="203.2" height="206"/>
<g>
	<path class="st1" d="M99.5,91.1c11.4,0.2,20.6,5.2,27.9,13.7c7,8.1,10.9,17.6,12.5,28.2c1.6,10.5-5.1,20.6-14.9,22.9
		c-3.3,0.8-6.5,0.5-9.6-0.6c-5.4-1.9-10.9-2.8-16.6-2.7c-4.7,0.1-9.3,0.6-13.6,2.3c-14.4,5.7-26.9-6.8-26.1-19.7
		c0.5-7.9,3-15.1,6.8-22c4.4-8,10.5-14.5,18.9-18.6C89.4,92.3,94.3,91.1,99.5,91.1z"/>
	<path class="st1" d="M103.5,63.6c0.1-6.6,1.6-12.7,5.8-17.9c6.8-8.5,17.7-8.5,24.5,0.1c4.2,5.4,5.8,11.6,5.7,18.3
		c-0.1,6.4-1.8,12.4-5.9,17.4c-6.8,8.3-17.5,8.2-24.2-0.2C105.1,76.2,103.6,70.1,103.5,63.6z"/>
	<path class="st1" d="M95.7,63.3c-0.1,6.5-1.5,12.4-5.4,17.5c-7,9.2-18.5,9.2-25.4-0.2c-4.4-6-5.7-12.9-5.1-20.2
		c0.5-5.5,2.2-10.5,5.7-14.9c6.7-8.3,17.6-8.2,24.2,0.1C94,50.9,95.6,57,95.7,63.3z"/>
	<path class="st1" d="M30.5,93.5c0.1-4,0.8-7.5,2.8-10.6c4-6.5,11.4-8.6,18.1-5.1c6.2,3.2,9.4,8.7,10.9,15.3c0.8,3.3,0.8,6.6,0,9.9
		c-1.4,5.6-4.3,9.9-10.1,11.6c-5.7,1.7-10.6-0.3-14.7-4.3C32.7,105.6,30.7,99.7,30.5,93.5z"/>
	<path class="st1" d="M168.7,92.6c-0.3,7.5-2.5,13.7-7.8,18.4c-8.8,7.7-20.5,4.4-23.6-6.9c-2.5-9.2-0.2-17.5,7-23.9
		c9-8,21.1-3.9,23.8,7.9C168.4,89.7,168.5,91.5,168.7,92.6z"/>
</g>
</svg>
