<?xml version="1.0" encoding="utf-8"?>
<!-- Generator: Adobe Illustrator 27.0.0, SVG Export Plug-In . SVG Version: 6.00 Build 0)  -->
<svg version="1.1" id="Capa_1" xmlns="http://www.w3.org/2000/svg" xmlns:xlink="http://www.w3.org/1999/xlink" x="0px" y="0px"
	 viewBox="0 0 200 200" style="enable-background:new 0 0 200 200;" xml:space="preserve">
<style type="text/css">
	.st0{fill:#B2F9D5;}
	.st1{fill:#AEEAFF;}
	.st2{fill:#FCBE01;}
	.st3{fill:#EEB002;}
	.st4{fill:#FCBE00;}
</style>
<rect x="-1.1" y="-3.1" class="st0" width="203.2" height="206"/>
<rect x="-2" y="-4" class="st1" width="203.2" height="206"/>
<g>
	<path class="st2" d="M27.7,103.7c0.6-1.7,1-3.5,1.9-5c2.3-4,5.6-6.4,9.9-7.3c0,0.2,0.1,0.4,0.4,0.5c4.2,1.4,7.1,4.5,9.7,8
		c3,4,5.7,8.3,6.6,13.4c0.7,3.9,0,7.3-3.7,9.1c-1.2,0.6-2.4,0.8-3.6,1.3c-4.6-0.6-9.1-1.8-13.3-4.1c-3.7-2.1-6.2-5.2-7.3-9.5
		c-0.1-0.4,0-1-0.5-1.2C27.7,107.1,27.7,105.4,27.7,103.7z"/>
	<path class="st3" d="M147.6,91.4c8.1-1.7,15.3,4.2,16.6,11.7c0.1,0.4,0.1,0.6,0.5,0.6c0,1.5,0,3,0,4.5c-0.5,0.4-0.6,1-0.7,1.6
		c-1.2,4.9-4.1,8.2-8.3,10.3c-5.6,2.7-11.5,4.1-17.7,3.6c0.4-0.2,0.7-0.4,1.1-0.4c2.9-0.3,5.6-1.2,8.3-2.3c2.7-1.1,5.3-2.4,7.1-4.7
		c2.7-3.3,3.9-7.2,3.5-11.7c-0.5-4.9-2.9-8.4-6.6-11.1C150.3,92.5,148.7,92.4,147.6,91.4z"/>
	<path class="st4" d="M112.7,159.5c-2.9-0.2-5.7-1.1-8.5-1.6c-7.2-1.4-14.3-0.8-21.4,1c-4.7,1.2-9.3,1.1-14-0.4
		c-4.8-1.6-6.9-4.3-7.1-9.6c-0.2-4,0.6-7.8,1.7-11.5c3.5-11.1,9.1-20.8,17.5-28.5c3.5-3.2,7.3-5.6,12-6.4c0.7,0.2,1.4,0.4,2,0.6
		c6.8,2.4,11.6,7.4,16,13c3.4,4.3,6,9.1,8.2,14.1c2.6,6.1,4.6,12.3,4.2,19.1c-0.2,3.6-1.4,6.5-4.7,8.1
		C116.7,158.5,114.7,158.9,112.7,159.5z"/>
	<path class="st2" d="M109.2,95.2c-2.7-1.1-4.1-3.4-5.1-6.1c-1.7-4.6-2-9.4-1.7-14.3c0.2-3.7,0.7-7.5,1.8-11.1
		c2.2-7,6.7-11.2,13.6-12.5c0.1,0.3,0.3,0.4,0.5,0.5c3.8,1.1,6.9,3.3,9.1,6.7c3.5,5.4,4.1,11.3,1.6,17.3c-2,4.7-5.2,8.5-8.8,12
		C116.9,91,113.4,93.6,109.2,95.2z"/>
	<path class="st2" d="M77.1,95.3c-3.2-0.9-5.9-2.7-8.4-4.8c-4.6-3.8-8.5-8.2-11.2-13.6c-5.2-10.4,0.2-22.6,11-25.3
		c0.4-0.1,0.8-0.1,1.2-0.2c0.1,0.5,0.5,0.4,0.8,0.5c5.5,1.8,9.3,5.6,11.1,11.4c2.3,7.2,2.6,14.6,1.4,22C82.3,89.3,80.8,93,77.1,95.3
		z"/>
	<path class="st2" d="M147.6,91.4c1.1,1,2.7,1.1,3.9,2c3.8,2.7,6.1,6.2,6.6,11.1c0.5,4.5-0.8,8.3-3.5,11.7c-1.9,2.3-4.5,3.6-7.1,4.7
		c-2.7,1.1-5.4,2-8.3,2.3c-0.4,0-0.7,0.3-1.1,0.4c-0.7-0.1-1.4-0.2-2.1-0.4c-5.2-1.3-7.3-4.9-6.1-10.5c0.9-4.1,2.8-7.7,5.1-11
		c1.8-2.7,3.9-5.1,6.3-7.2C143.2,93,145.3,92,147.6,91.4z"/>
	<path class="st3" d="M112.7,159.5c2-0.6,4-1,5.9-1.9c3.4-1.6,4.5-4.6,4.7-8.1c0.4-6.8-1.6-13-4.2-19.1c-2.2-5-4.8-9.8-8.2-14.1
		c-4.4-5.6-9.3-10.6-16-13c-0.7-0.2-1.3-0.4-2-0.6c3.2-0.8,6.4-0.2,9.4,1c5.8,2.4,10.2,6.6,14.1,11.6c4.9,6.2,8.6,13.1,11.1,20.7
		c1.3,4,2.3,8.1,2.2,12.3c-0.1,5.8-2.3,8.9-7.6,10.5C119.1,159.6,115.9,160,112.7,159.5z"/>
	<path class="st3" d="M109.2,95.2c4.2-1.6,7.7-4.3,11-7.5c3.6-3.5,6.8-7.3,8.8-12c2.5-6,1.9-11.9-1.6-17.3c-2.2-3.4-5.3-5.6-9.1-6.7
		c-0.3-0.1-0.5-0.2-0.5-0.5c9-1.4,16.7,4.9,18.6,13.4c1,4.5,0.4,8.9-1.9,12.9c-4,6.9-9.2,12.5-15.9,16.4c-2.8,1.6-5.7,2.5-8.9,1.6
		C109.4,95.4,109.3,95.3,109.2,95.2z"/>
	<path class="st3" d="M77.1,95.3c3.6-2.3,5.2-6,5.8-10.1c1.2-7.4,0.9-14.8-1.4-22c-1.8-5.7-5.5-9.6-11.1-11.4
		c-0.3-0.1-0.7,0-0.8-0.5C78.8,49.9,87,56.1,88.9,67c0.9,5.2,1.4,10.4,0.8,15.7c-0.4,3.4-1.1,6.7-3,9.6
		C84.4,95.6,80.9,96.7,77.1,95.3z"/>
	<path class="st3" d="M48.9,123.7c1.2-0.5,2.5-0.7,3.6-1.3c3.7-1.9,4.4-5.2,3.7-9.1c-0.9-5.1-3.5-9.4-6.6-13.4
		c-2.6-3.4-5.5-6.6-9.7-8c-0.2-0.1-0.4-0.3-0.4-0.5c5.7-1.1,10.1,1.3,13.9,5.5c4.1,4.5,7.4,9.5,9,15.7c0.7,3,0.7,5.9-1.4,8.3
		c-1.7,2-4.1,2.6-6.5,2.8C52.6,123.9,50.7,123.9,48.9,123.7z"/>
</g>
</svg>
