<?xml version="1.0" encoding="utf-8"?>
<!-- Generator: Adobe Illustrator 27.0.0, SVG Export Plug-In . SVG Version: 6.00 Build 0)  -->
<svg version="1.1" id="Capa_1" xmlns="http://www.w3.org/2000/svg" xmlns:xlink="http://www.w3.org/1999/xlink" x="0px" y="0px"
	 viewBox="0 0 200 200" style="enable-background:new 0 0 200 200;" xml:space="preserve">
<style type="text/css">
	.st0{fill:#B2F9D5;}
	.st1{fill:#E2E1FF;}
	.st2{fill:#D4D4FF;}
	.st3{fill:#EFEDFF;}
	.st4{fill:#2DC285;}
	.st5{fill:#29B27A;}
	.st6{fill:#FFDDCF;}
	.st7{fill:#FFCBBE;}
	.st8{fill:#676FB2;}
	.st9{fill:#4C5699;}
	.st10{opacity:0.19;}
	.st11{fill:#FF8E9E;}
	.st12{fill:#313D40;}
</style>
<rect x="-2" y="-4" class="st0" width="203.2" height="206"/>
<g id="Capa_3">
</g>
<path class="st1" d="M127.9,146H100v38.5l16,10.1h21.5c5.6,0,10.1-4.5,10.1-10.1C147.6,168.9,140,154.8,127.9,146z"/>
<g>
	<path class="st1" d="M100,160.2H70.5v28.2l6.2,6.2H84l16-10.1V160.2z"/>
	<path class="st2" d="M84,166h16v-20H72.1c-12,8.8-19.7,22.9-19.7,38.5c0,5.6,4.5,10.1,10.1,10.1h14.2C76.7,184.9,79.1,175.1,84,166
		L84,166z"/>
	<g>
		<path class="st3" d="M84,139.7c-4.3,1.6-8.3,3.7-11.9,6.3c-5.8,5.8-5.8,15.2,0,21L84,178.9h16v-39.2L84,139.7L84,139.7z"/>
		<path class="st3" d="M127.9,146c-3.6-2.6-7.6-4.8-11.9-6.3h-16v39.2h16l11.9-11.9C133.7,161.2,133.7,151.8,127.9,146z"/>
	</g>
</g>
<path class="st4" d="M86.7,151.9L84,166v28.6h32v-42.7L86.7,151.9L86.7,151.9z"/>
<path class="st5" d="M84,151.9V166c2-3.7,4.4-7.1,7.1-10.3v-3.8H84z"/>
<g>
	<path class="st6" d="M114.1,139.1h-23v16.6c2.8,1.2,5.8,2,8.9,2.5c5.9-0.9,11.3-3.1,16-6.3v-12.2
		C115.4,139.5,114.7,139.3,114.1,139.1z"/>
	<path class="st7" d="M109.5,141.2c1.5-0.8,3.1-1.5,4.7-2.1c-4.5-1.4-9.3-2.1-14.1-2.1c-5.5,0-10.9,0.9-16,2.8v12.2
		c2.2,1.5,4.6,2.8,7.1,3.8C96.2,149.8,102.4,144.8,109.5,141.2L109.5,141.2z"/>
</g>
<g>
	<path class="st7" d="M42.9,70.7c-7.8,0-14.2,6.3-14.2,14.2s6.3,14.2,14.2,14.2s14.2-6.3,14.2-14.2c0-7.2-5.4-13.2-12.4-14.1
		C44.1,70.8,43.5,70.7,42.9,70.7z"/>
	<path class="st7" d="M157.1,70.7c-0.6,0-1.2,0-1.8,0.1c-7,0.9-12.4,6.8-12.4,14.1c0,7.8,6.4,14.2,14.2,14.2s14.2-6.3,14.2-14.2
		S164.9,70.7,157.1,70.7z"/>
</g>
<g>
	<path class="st6" d="M109.5,28.6H98.6c-7.2,0-14.1,3.3-18.6,9L42.9,84.9L80,132.2c4.5,5.7,11.3,9,18.6,9h10.9
		c2.2-0.4,4.4-0.9,6.6-1.5c23.7-6.9,41.1-28.8,41.1-54.8c0-4.9-0.6-9.6-1.8-14.1C149.8,49.1,131.8,32.4,109.5,28.6L109.5,28.6z"/>
	<path class="st7" d="M61.8,84.9c0-28.3,20.6-51.8,47.6-56.3c-3.1-0.5-6.2-0.8-9.5-0.8c-26.7,0-49,18.3-55.3,43
		c-1.1,4.5-1.8,9.2-1.8,14.1c0,26,17.3,47.9,41.1,54.8c5.1,1.5,10.4,2.3,16,2.3c3.2,0,6.4-0.3,9.5-0.8
		C82.4,136.7,61.8,113.2,61.8,84.9L61.8,84.9z"/>
</g>
<g>
	<path class="st8" d="M155.6,57.1c-10.3-20.7-31.6-34.3-55.6-34.3l-10,2.4v29.1l10,8.1c11.9,7.1,26.3,8.4,40.4,8.4h14.9
		C157.6,66.6,157.7,61.5,155.6,57.1z"/>
	<path class="st9" d="M100,22.8c-6.3,0-12.4,1-18.2,2.7c-1.6,0.5-2.7,1.8-3.1,3.2h-2c-2.3,0-4.5,0.6-6.5,1.7
		c-5.8,3.3-18,11.4-25.7,26.6c-2.2,4.3-2.1,9.5,0.2,13.7c6.3,0,12.1-2.3,16.6-6.8l11.1-11.1c3.4-3.4,7.9-5.1,12.4-5.1
		c4.3,6.5,9.4,11.3,15.2,14.6C89.1,51.5,89.1,33.8,100,22.8z"/>
</g>
<g class="st10">
	<ellipse class="st11" cx="68.9" cy="104.3" rx="11.4" ry="9"/>
	<ellipse class="st11" cx="131.1" cy="104.3" rx="11.4" ry="9"/>
</g>
<g>
	<path class="st12" d="M75.4,88.4c-1.4,0-2.6,1.2-2.6,2.6v4.7c0,1.4,1.2,2.6,2.6,2.6s2.6-1.2,2.6-2.6V91
		C78,89.5,76.9,88.4,75.4,88.4z"/>
	<path class="st12" d="M124.6,88.4c-1.4,0-2.6,1.2-2.6,2.6v4.7c0,1.4,1.2,2.6,2.6,2.6s2.6-1.2,2.6-2.6V91
		C127.2,89.5,126,88.4,124.6,88.4z"/>
	<path class="st12" d="M108.2,93.6c-1.1-0.9-2.7-0.8-3.7,0.2c-1.1,1.3-2.8,2.1-4.5,2.1s-3.4-0.8-4.5-2.1c-0.9-1.1-2.6-1.2-3.7-0.2
		s-1.2,2.6-0.2,3.7c2.1,2.4,5.2,3.8,8.4,3.8s6.3-1.4,8.4-3.8C109.4,96.2,109.3,94.5,108.2,93.6L108.2,93.6z"/>
</g>
<g>
	<path class="st8" d="M138.7,181.1c0,0.1,0,0.2-0.1,0.3c-0.2,0.9-0.7,1.7-1.5,2.2c-0.2,0.2-0.5,0.3-0.8,0.3c-0.5,0.1-0.8-0.1-1-0.5
		c-0.2-0.4-0.3-0.8-0.4-1.2c-0.1-0.8-0.1-1.6,0-2.3c0.1-0.6,0.3-1.2,0.7-1.7c0.2-0.2,0.4-0.4,0.6-0.5c0.5-0.3,1.1-0.2,1.5,0.3
		c0.5,0.5,0.7,1.1,0.9,1.7c0,0.2,0.1,0.4,0.1,0.6C138.7,180.6,138.7,180.8,138.7,181.1z"/>
	<path class="st8" d="M120.1,180.3c0.1-0.3,0.1-0.6,0.2-1c0.1-0.4,0.3-0.8,0.6-1.2c0,0,0,0,0,0c0.7-0.8,1.6-0.8,2.3,0
		c0.4,0.6,0.7,1.2,0.7,1.9c0.1,1,0.1,1.9-0.2,2.8c0,0.1-0.1,0.3-0.2,0.4c-0.3,0.5-0.7,0.7-1.3,0.6c-0.6-0.2-1-0.5-1.4-0.9
		c-0.4-0.5-0.7-1.1-0.8-1.8c0,0,0-0.1,0-0.1C120.1,180.8,120.1,180.6,120.1,180.3z"/>
	<path class="st8" d="M129.6,180.7c0.8,0,1.8,0.4,2.6,1.1c1.2,1,2,2.2,2.2,3.7c0.3,1.6-0.1,3-1.5,4c-0.5,0.3-1,0.5-1.5,0.6
		c-0.1,0-0.2,0-0.3-0.1c-0.2-0.2-0.4-0.4-0.5-0.5c-0.3-0.3-0.5-0.6-0.8-0.9c-0.3-0.3-0.4-0.3-0.7,0c-0.3,0.3-0.5,0.6-0.8,0.9
		c-0.2,0.2-0.3,0.4-0.5,0.6c-0.1,0.1-0.2,0.1-0.3,0.1c-1.8-0.4-3-1.8-3.1-3.7c0-1.3,0.4-2.4,1.2-3.5c0.7-0.9,1.5-1.6,2.6-2
		C128.5,180.8,128.9,180.7,129.6,180.7z M125.3,186c0,0.3,0.1,0.5,0.3,0.5c0.2,0,0.3-0.1,0.3-0.4c0,0,0-0.1,0-0.1
		c0.2-1.7,2-3.7,3.5-3.6c0.2,0,0.3-0.2,0.3-0.3c0-0.2-0.2-0.3-0.3-0.3c-0.3,0-0.6,0.1-0.9,0.1c-0.9,0.3-1.6,0.9-2.2,1.6
		C125.7,184.2,125.3,185.1,125.3,186z"/>
	<path class="st8" d="M134.2,176.8c0,1-0.2,1.8-0.7,2.5c-0.3,0.4-0.6,0.6-1,0.8c-0.6,0.2-1.2,0-1.7-0.4c-0.6-0.5-0.8-1.2-1-1.9
		c-0.1-0.9-0.1-1.8,0.3-2.6c0.2-0.4,0.4-0.7,0.7-0.9c0.7-0.6,1.6-0.5,2.3,0.1c0.6,0.5,0.9,1.2,1,2
		C134.2,176.4,134.2,176.7,134.2,176.8z"/>
	<path class="st8" d="M124.6,177c0-1,0.2-1.8,0.7-2.5c0.3-0.4,0.7-0.7,1.2-0.8c0.6-0.1,1.1,0.1,1.5,0.5c0.5,0.5,0.8,1.2,0.9,1.9
		c0.2,1,0.1,1.9-0.4,2.7c-0.2,0.3-0.4,0.5-0.6,0.7c-0.7,0.6-1.6,0.6-2.3,0c-0.6-0.5-0.9-1.2-1-2C124.6,177.4,124.6,177.1,124.6,177z
		"/>
	<path class="st8" d="M125.3,186c0.1-0.9,0.5-1.8,1.1-2.5c0.6-0.7,1.3-1.3,2.2-1.6c0.3-0.1,0.6-0.1,0.9-0.1c0.2,0,0.3,0.1,0.3,0.3
		c0,0.2-0.1,0.3-0.3,0.3c-1.5-0.1-3.3,1.9-3.5,3.6c0,0,0,0.1,0,0.1c0,0.2-0.1,0.4-0.3,0.4C125.4,186.4,125.2,186.3,125.3,186z"/>
</g>
</svg>
