<?xml version="1.0" encoding="utf-8"?>
<!-- Generator: Adobe Illustrator 27.0.0, SVG Export Plug-In . SVG Version: 6.00 Build 0)  -->
<svg version="1.1" id="Capa_1" xmlns="http://www.w3.org/2000/svg" xmlns:xlink="http://www.w3.org/1999/xlink" x="0px" y="0px"
	 viewBox="0 0 400 400" style="enable-background:new 0 0 400 400;" xml:space="preserve">
<style type="text/css">
	.st0{opacity:0.5;fill:#FFFFFF;enable-background:new    ;}
	.st1{fill:#EAF5FC;}
	.st2{fill:#DCE7F7;}
	.st3{fill:#D3DDFB;}
	.st4{fill:url(#SVGID_1_);}
	.st5{fill:#06BCB7;}
	.st6{fill:#F9B938;}
	.st7{fill:#00D67F;}
	.st8{fill:#FC6559;}
</style>
<g>
	<path class="st0" d="M250,67.6h27.9c1.6,0,3,1.3,3,3s-1.3,3-3,3H250c-1.6,0-3-1.3-3-3S248.4,67.6,250,67.6z"/>
	<path class="st0" d="M289.5,67.6h2c1.6,0,3,1.3,3,3s-1.3,3-3,3h-2c-1.6,0-3-1.3-3-3S287.9,67.6,289.5,67.6z"/>
</g>
<path class="st1" d="M397.3,59.2v302.4c0,13.9-11.3,25.2-25.2,25.2H27.9c-13.9,0-25.2-11.3-25.2-25.2V59.2C2.7,45.3,14,34,27.9,34
	h344.2C386,34,397.3,45.3,397.3,59.2z"/>
<path class="st2" d="M397.3,59.2v302.4c0,13.9-11.3,25.2-25.1,25.2H27.9c-11.3,0-20.7-7.3-23.9-17.5c2.5,0.8,5,1.2,7.7,1.2h344.2
	c13.9,0,25.2-11.3,25.2-25.2V42.9c0-2.7-0.4-5.3-1.2-7.7C390,38.5,397.3,47.9,397.3,59.2L397.3,59.2z"/>
<path class="st3" d="M397.3,147.9V75.1c0-13.9-11.3-25.2-25.2-25.2H27.9C14,50,2.7,61.2,2.7,75.1v72.8H397.3L397.3,147.9z"/>
<linearGradient id="SVGID_1_" gradientUnits="userSpaceOnUse" x1="2.7" y1="500.559" x2="397.3" y2="500.559" gradientTransform="matrix(1 0 0 1 0 -417.559)">
	<stop  offset="0" style="stop-color:#00A09C"/>
	<stop  offset="0.3381" style="stop-color:#10B8B2"/>
	<stop  offset="0.7448" style="stop-color:#1FCFC7"/>
	<stop  offset="1" style="stop-color:#25D8CF"/>
</linearGradient>
<path class="st4" d="M397.3,132V59.2c0-13.9-11.3-25.2-25.2-25.2H27.9C14,34,2.7,45.3,2.7,59.2V132H397.3L397.3,132z"/>
<path class="st5" d="M73.8,83.7c0,10.8-8.8,19.6-19.6,19.6s-19.6-8.8-19.6-19.6s8.7-19.6,19.6-19.6C65,64.1,73.8,72.8,73.8,83.7z"/>
<path class="st3" d="M65.2,24.2v59.6c0,6.1-4.9,11-11,11h-0.1c-6.1,0-11-4.9-11-11V24.2c0-6.1,4.9-11,11-11h0.1
	C60.3,13.2,65.2,18.1,65.2,24.2z"/>
<path class="st5" d="M365.4,83.7c0,10.8-8.8,19.6-19.6,19.6c-10.8,0-19.6-8.8-19.6-19.6s8.7-19.6,19.6-19.6
	C356.5,64.1,365.4,72.8,365.4,83.7z"/>
<path class="st3" d="M356.8,24.2v59.6c0,6.1-4.9,11-11,11h-0.1c-6.1,0-11-4.9-11-11V24.2c0-6.1,4.9-11,11-11h0.1
	C351.9,13.2,356.8,18.1,356.8,24.2z"/>
<g>
	<path class="st3" d="M223.1,176.3v32.3c0,3.9-3.1,7-7,7h-32.3c-3.9,0-7-3.1-7-7v-32.3c0-3.9,3.1-7,7-7h32.3
		C220,169.3,223.1,172.5,223.1,176.3z"/>
	<path class="st3" d="M291.6,176.3v32.3c0,3.9-3.1,7-7,7h-32.3c-3.9,0-7-3.1-7-7v-32.3c0-3.9,3.1-7,7-7h32.3
		C288.5,169.3,291.6,172.5,291.6,176.3L291.6,176.3z"/>
	<path class="st3" d="M360.1,176.3v32.3c0,3.9-3.1,7-7,7h-32.3c-3.9,0-7-3.1-7-7v-32.3c0-3.9,3.1-7,7-7h32.3
		C357,169.3,360.1,172.5,360.1,176.3z"/>
</g>
<path class="st6" d="M154.7,176.3v32.3c0,3.9-3.1,7-7,7h-32.3c-3.8,0-7-3.1-7-7v-32.3c0-3.9,3.1-7,7-7h32.3
	C151.5,169.3,154.7,172.5,154.7,176.3z"/>
<path class="st3" d="M86.2,244.4v32.3c0,3.9-3.1,7-7,7H46.9c-3.8,0-7-3.1-7-7v-32.3c0-3.9,3.1-7,7-7h32.3
	C83.1,237.5,86.2,240.6,86.2,244.4z"/>
<path class="st3" d="M223.1,244.4v32.3c0,3.9-3.1,7-7,7h-32.3c-3.9,0-7-3.1-7-7v-32.3c0-3.9,3.1-7,7-7h32.3
	C220,237.5,223.1,240.6,223.1,244.4z"/>
<path class="st3" d="M291.6,244.4v32.3c0,3.9-3.1,7-7,7h-32.3c-3.9,0-7-3.1-7-7v-32.3c0-3.9,3.1-7,7-7h32.3
	C288.5,237.5,291.6,240.6,291.6,244.4L291.6,244.4z"/>
<path class="st7" d="M360.1,244.4v32.3c0,3.9-3.1,7-7,7h-32.3c-3.9,0-7-3.1-7-7v-32.3c0-3.9,3.1-7,7-7h32.3
	C357,237.5,360.1,240.6,360.1,244.4z"/>
<path class="st3" d="M154.7,244.4v32.3c0,3.9-3.1,7-7,7h-32.3c-3.8,0-7-3.1-7-7v-32.3c0-3.9,3.1-7,7-7h32.3
	C151.5,237.5,154.7,240.6,154.7,244.4z"/>
<path class="st8" d="M86.2,312.5v32.3c0,3.9-3.1,7-7,7H46.9c-3.8,0-7-3.1-7-7v-32.3c0-3.9,3.1-7,7-7h32.3
	C83.1,305.6,86.2,308.7,86.2,312.5z"/>
<path class="st3" d="M223.1,312.5v32.3c0,3.9-3.1,7-7,7h-32.3c-3.9,0-7-3.1-7-7v-32.3c0-3.9,3.1-7,7-7h32.3
	C220,305.6,223.1,308.7,223.1,312.5z"/>
<path class="st3" d="M291.6,312.5v32.3c0,3.9-3.1,7-7,7h-32.3c-3.9,0-7-3.1-7-7v-32.3c0-3.9,3.1-7,7-7h32.3
	C288.5,305.6,291.6,308.7,291.6,312.5L291.6,312.5z"/>
<path class="st3" d="M154.7,312.5v32.3c0,3.9-3.1,7-7,7h-32.3c-3.8,0-7-3.1-7-7v-32.3c0-3.9,3.1-7,7-7h32.3
	C151.5,305.6,154.7,308.7,154.7,312.5z"/>
<path class="st5" d="M397.3,59.2V132H381V42.9c0-2.7-0.4-5.3-1.2-7.7C382.1,35.6,397.3,42.2,397.3,59.2z"/>
<g>
	<path class="st0" d="M154.6,46.4h64.7c3.8,0,6.9,3.1,6.9,6.9s-3.1,6.9-6.9,6.9h-64.7c-3.8,0-6.9-3.1-6.9-6.9S150.8,46.4,154.6,46.4
		z"/>
	<path class="st0" d="M246.1,46.4h4.5c3.8,0,6.9,3.1,6.9,6.9s-3.1,6.9-6.9,6.9h-4.5c-3.8,0-6.9-3.1-6.9-6.9
		C239.2,49.4,242.3,46.4,246.1,46.4z"/>
</g>
</svg>
