<?xml version="1.0" encoding="utf-8"?>
<!-- Generator: Adobe Illustrator 27.0.0, SVG Export Plug-In . SVG Version: 6.00 Build 0)  -->
<svg version="1.1" id="Capa_1" xmlns="http://www.w3.org/2000/svg" xmlns:xlink="http://www.w3.org/1999/xlink" x="0px" y="0px"
	 viewBox="0 0 400 400" style="enable-background:new 0 0 400 400;" xml:space="preserve">
<style type="text/css">
	.st0{fill:#FEB64C;}
	.st1{fill:#FEA727;}
	.st2{fill:#C6C3D8;}
	.st3{fill:#D9D6E4;}
	.st4{fill:#9A6003;}
	.st5{fill:#DAD7E5;}
	.st6{fill:#8F5A06;}
	.st7{fill:url(#SVGID_1_);}
	.st8{fill:#FFFFFF;}
</style>
<g>
	<path class="st0" d="M268,130.6c1.1,0.1,2.3,0.2,3.4,0.2c11.2,0.1,15,4,15,15.4c0,33.2,0,66.4,0,99.5c0,10.9-0.1,21.9-0.2,32.8
		c-14.3,0-28.7,0.3-42.9-2.3c-19.7-3.7-38.4-10-54.9-21.8c3.1-0.2,6.2-0.4,9.2-0.6c1.1,0.1,2.3,0.3,3.4,0.3
		c9.1,0.1,11-1.6,10.3-10.7c-0.6-8.6-1.4-17.2-2.7-25.7c-0.6-3.5,0.2-5.6,2.7-8c7.4-7.2,9.4-18.1,5.4-27
		c-4.4-9.8-12.9-15.2-23.7-14.8c-10.3,0.2-17.6,5.5-21.5,14.6c-4.1,9.6-2.5,18.7,4.6,26.7c1.4,1.6,4.1,2.5,3.8,5.4
		c-1.3,10.2-2.5,20.4-3.8,30.7c-8.8-5.7-15.6-13.4-22.2-21.4c-22.2-27-32.9-58.1-33.5-92.9l-0.1-0.4c4.3,0,8.5,0,12.8,0
		c4.2,0,8.5,0,12.7,0c32.6,0,65.3,0,97.9,0c3.9,0,7.8,0,11.7,0C259.6,130.6,263.8,130.6,268,130.6z"/>
	<path class="st1" d="M188.4,254.3c16.5,11.8,35.2,18.1,54.9,21.8c14.2,2.7,28.6,2.3,42.9,2.3c-0.9,8.3-5.2,12.3-13.6,12.4
		c-11,0.1-21.9,0-32.9,0c-40.6,0-81.1,0-121.7,0c-12,0-16.2-4.2-16.2-16.4c0-41.9,0-83.8,0-125.7c0-14.9,3.6-18.4,18.5-17.9
		c0.6,34.8,11.4,65.9,33.5,92.9c6.6,8,13.4,15.7,22.2,21.4C176.7,253.2,177.7,253.9,188.4,254.3z"/>
	<path class="st2" d="M255.3,130.6c-3.9,0-7.8,0-11.7,0c-0.4-18,0.8-36-0.8-54c-1.4-15.6-9-27-21.2-35.8c-12.1-8.7-25.9-9.5-40.1-7
		c-1.6-1.6-3.6-1.1-5.4-1c-20.7,0.7-42.8,23.6-43,44.4c-0.1,17.8,0,35.6,0,53.4c-4.3,0-8.5,0-12.8,0c0-16.7,0.1-33.4,0.1-50.1
		c0.1-36.5,28.9-68.3,65.2-72c3.2-0.3,6.4-1.4,9.7-0.9c0.3,1.3,1,1.9,2.3,2.1c9.5,1.9,18.2,5.6,26.1,11.2
		c20.5,14.7,31.4,34.4,31.7,59.7C255.5,97.2,255.3,113.9,255.3,130.6z"/>
	<path class="st3" d="M255.3,130.6c0-16.7,0.1-33.3-0.1-50c-0.3-25.3-11.1-45.1-31.7-59.7c-7.9-5.6-16.6-9.4-26.1-11.2
		c-1.3-0.3-2-0.9-2.3-2.1c27.7,1.2,49.1,13.3,63.2,37.4c6.9,11.8,10.1,24.6,9.7,38.5c-0.5,15.7-0.1,31.5-0.1,47.2
		C263.8,130.6,259.6,130.6,255.3,130.6z"/>
	<path class="st4" d="M188.4,254.3c-10.7-0.4-11.7-1.2-12.3-9.1c1.3-10.2,2.5-20.4,3.8-30.7c0.4-2.9-2.3-3.8-3.8-5.4
		c-7.1-8-8.7-17.1-4.6-26.7c3.9-9.1,11.2-14.3,21.5-14.6c-0.4,3.7,3,4.8,5,6.4c11.1,8.9,10.8,26.5,1,35.3c-1.8,1.6-2.8,3.6-2.5,6.1
		c0.6,6.4,1.5,12.8,1.8,19.3c0.3,6.3,2.8,12.7-0.6,18.9C194.6,253.9,191.5,254.1,188.4,254.3z"/>
	<path class="st5" d="M181.4,33.7c-8.1,3.8-16.5,7-22.6,14c-8,9.1-13.1,19.3-13.1,31.6c0,17.1,0,34.2,0,51.3c-4.2,0-8.5,0-12.7,0
		c0-17.8-0.1-35.6,0-53.4c0.1-20.9,22.3-43.7,43-44.4C177.8,32.7,179.9,32.1,181.4,33.7z"/>
	<path class="st6" d="M197.7,253.7c3.3-6.2,0.9-12.6,0.6-18.9c-0.3-6.4-1.1-12.8-1.8-19.3c-0.2-2.5,0.7-4.4,2.5-6.1
		c9.9-8.8,10.1-26.4-1-35.3c-2-1.6-5.4-2.6-5-6.4c10.8-0.3,19.3,5,23.7,14.8c4,8.9,2,19.8-5.4,27c-2.4,2.4-3.2,4.4-2.7,8
		c1.3,8.5,2.1,17.1,2.7,25.7c0.7,9-1.2,10.8-10.3,10.7C199.9,254,198.8,253.8,197.7,253.7z"/>
</g>
<linearGradient id="SVGID_1_" gradientUnits="userSpaceOnUse" x1="0" y1="42.0898" x2="400" y2="42.0898" gradientTransform="matrix(1 0 0 -1 0 399.8898)">
	<stop  offset="0" style="stop-color:#B755E5"/>
	<stop  offset="4.796749e-02" style="stop-color:#AC5FE3"/>
	<stop  offset="0.275" style="stop-color:#7C8ADC"/>
	<stop  offset="0.4909" style="stop-color:#56ACD6"/>
	<stop  offset="0.6898" style="stop-color:#3BC4D2"/>
	<stop  offset="0.8656" style="stop-color:#2BD3D0"/>
	<stop  offset="1" style="stop-color:#25D8CF"/>
</linearGradient>
<path class="st7" d="M388,397.7H12c-6.6,0-12-5.4-12-12v-55.8c0-6.6,5.4-12,12-12h376c6.6,0,12,5.4,12,12v55.8
	C400,392.3,394.6,397.7,388,397.7z"/>
<g>
	<path class="st8" d="M88.7,339.1L75.2,357v0.3l21.6-2.9v9.7l-21.6-2.6v0.3L88.9,379l-9,5.1l-8.6-20H71l-9.3,20.1l-8.1-5.1
		l13.6-17.4v-0.3L46,364.1v-9.7l21,2.7v-0.3l-13.4-17.4l8.7-5l8.9,19.9h0.3l8.7-20L88.7,339.1z"/>
	<path class="st8" d="M172.3,339.1L158.8,357v0.3l21.6-2.9v9.7l-21.6-2.6v0.3l13.7,17.1l-9,5.1l-8.6-20h-0.3l-9.3,20.1l-8.1-5.1
		l13.6-17.4v-0.3l-21.1,2.7v-9.7l21,2.7v-0.3l-13.4-17.4l8.7-5l8.9,19.9h0.3l8.7-20L172.3,339.1z"/>
	<path class="st8" d="M255.9,339.1L242.3,357v0.3l21.6-2.9v9.7l-21.6-2.6v0.3l13.7,17.1l-9,5.1l-8.6-20h-0.3l-9.3,20.1l-8.1-5.1
		l13.6-17.4v-0.3l-21.1,2.7v-9.7l21,2.7v-0.3l-13.4-17.4l8.7-5l8.9,19.9h0.3l8.7-20L255.9,339.1z"/>
	<path class="st8" d="M339.5,339.1L325.9,357v0.3l21.6-2.9v9.7l-21.6-2.6v0.3l13.7,17.1l-9,5.1l-8.6-20h-0.3l-9.3,20.1l-8.1-5.1
		l13.6-17.4v-0.3l-21.1,2.7v-9.7l21,2.7v-0.3l-13.4-17.4l8.7-5l8.9,19.9h0.3l8.7-20L339.5,339.1z"/>
</g>
</svg>
