<?xml version="1.0" encoding="utf-8"?>
<!-- Generator: Adobe Illustrator 27.0.0, SVG Export Plug-In . SVG Version: 6.00 Build 0)  -->
<svg version="1.1" id="Capa_1" xmlns="http://www.w3.org/2000/svg" xmlns:xlink="http://www.w3.org/1999/xlink" x="0px" y="0px"
	 viewBox="0 0 400 400" style="enable-background:new 0 0 400 400;" xml:space="preserve">
<style type="text/css">
	.st0{opacity:0.5;fill:#FFFFFF;enable-background:new    ;}
	.st1{fill:#EAF5FC;}
	.st2{fill:#DCE7F7;}
	.st3{fill:#D3DDFB;}
	.st4{fill:url(#SVGID_1_);}
	.st5{fill:#2CBEBF;}
	.st6{fill:#939292;}
	.st7{fill:#FFFFFF;}
	.st8{fill:url(#SVGID_00000098190840158200455460000014203911174415399818_);}
	.st9{fill:url(#SVGID_00000096772543693494839550000001484239627700117915_);}
	.st10{fill:#FF0025;}
</style>
<g>
	<path class="st0" d="M269.3,39.2h23.9c1.4,0,2.5,1.1,2.5,2.5s-1.1,2.5-2.5,2.5h-23.9c-1.4,0-2.5-1.1-2.5-2.5S267.9,39.2,269.3,39.2
		z"/>
	<path class="st0" d="M303.1,39.2h1.7c1.4,0,2.5,1.1,2.5,2.5s-1.1,2.5-2.5,2.5h-1.7c-1.4,0-2.5-1.1-2.5-2.5S301.7,39.2,303.1,39.2z"
		/>
</g>
<path class="st1" d="M395.2,32v258.5c0,11.9-9.6,21.5-21.5,21.5H79.5c-11.9,0-21.5-9.6-21.5-21.5V32c0-11.9,9.6-21.5,21.5-21.5
	h294.2C385.6,10.5,395.2,20.1,395.2,32z"/>
<path class="st2" d="M395.2,32v258.5c0,11.9-9.6,21.5-21.5,21.5H79.4c-9.6,0-17.7-6.3-20.4-15c2.1,0.7,4.3,1.1,6.6,1.1h294.2
	c11.9,0,21.5-9.6,21.5-21.5V18.1c0-2.3-0.4-4.5-1.1-6.5C389,14.3,395.2,22.4,395.2,32L395.2,32z"/>
<path class="st3" d="M395.2,107.8V45.6c0-11.9-9.6-21.5-21.5-21.5H79.5C67.6,24.1,58,33.7,58,45.6v62.2H395.2L395.2,107.8z"/>
<linearGradient id="SVGID_1_" gradientUnits="userSpaceOnUse" x1="58" y1="494.2398" x2="395.2" y2="494.2398" gradientTransform="matrix(1 0 0 1 0 -441.8898)">
	<stop  offset="0" style="stop-color:#B755E5"/>
	<stop  offset="4.796749e-02" style="stop-color:#AC5FE3"/>
	<stop  offset="0.275" style="stop-color:#7C8ADC"/>
	<stop  offset="0.4909" style="stop-color:#56ACD6"/>
	<stop  offset="0.6898" style="stop-color:#3BC4D2"/>
	<stop  offset="0.8656" style="stop-color:#2BD3D0"/>
	<stop  offset="1" style="stop-color:#25D8CF"/>
</linearGradient>
<path class="st4" d="M395.2,94.2V32c0-11.9-9.6-21.5-21.5-21.5H79.5C67.6,10.5,58,20.1,58,32v62.2H395.2L395.2,94.2z"/>
<path class="st5" d="M395.2,32v62.3h-13.9V18.1c0-2.3-0.4-4.5-1.1-6.5C382.2,11.9,395.2,17.4,395.2,32z"/>
<g>
	<path class="st0" d="M187.7,21H243c3.2,0,5.9,2.6,5.9,5.9s-2.6,5.9-5.9,5.9h-55.3c-3.2,0-5.9-2.6-5.9-5.9S184.5,21,187.7,21z"/>
	<path class="st0" d="M266,21h3.9c3.2,0,5.9,2.6,5.9,5.9s-2.6,5.9-5.9,5.9H266c-3.2,0-5.9-2.6-5.9-5.9C260.1,23.7,262.7,21,266,21z"
		/>
</g>
<g>
	<path class="st6" d="M174.1,143.8c4.6,4.6,6.9,10.6,6.9,17.9v56.7c0,7.4-2.3,13.4-6.8,17.9c-4.5,4.6-10.5,6.9-17.9,6.9
		s-13.3-2.3-17.8-6.9c-4.5-4.6-6.7-10.6-6.7-17.9V215h15.1v4.1c0,2.8,0.9,5,2.6,6.7c1.7,1.7,4,2.6,6.7,2.6c2.8,0,5-0.8,6.6-2.5
		c1.7-1.7,2.5-3.9,2.5-6.8v-23.6c-1.3,2.1-3.2,3.8-5.8,5.2s-5.7,2.1-9.4,2.1c-5.9,0-10.6-1.9-14-5.7s-5.1-8.9-5.1-15.4v-20.1
		c0-7.4,2.3-13.4,6.9-17.9c4.6-4.6,10.6-6.9,17.9-6.9C163.4,137,169.4,139.3,174.1,143.8z M149.3,154.2c-1.7,1.7-2.5,3.9-2.5,6.8
		v18.5c0,3.2,0.7,5.5,2.2,7s3.6,2.3,6.4,2.3c3.2,0,5.6-0.9,7.4-2.7c1.8-1.8,2.7-4.4,2.7-7.6V161c0-2.9-0.8-5.1-2.5-6.8
		s-4-2.5-6.9-2.5C153.1,151.7,150.9,152.6,149.3,154.2z"/>
	<path class="st6" d="M199,170.6h15.7v15.5H199V170.6z M199,226.3h15.7v15.5H199V226.3z"/>
	<path class="st6" d="M278.4,208.3v9.6c0,7.9-2.2,14.1-6.6,18.6s-10.5,6.8-18.3,6.8s-13.9-2.3-18.3-6.8c-4.4-4.5-6.6-10.7-6.6-18.6
		v-3.1l15.1-1.5v3.4c0,7.9,3.2,11.8,9.6,11.8c3.1,0,5.4-0.9,7.1-2.7s2.5-4.3,2.5-7.7v-10.8c0-4.1-0.9-7.1-2.8-9s-4.9-2.8-9-2.8h-6.2
		v-14.8h5.2c4.1,0,7.1-0.9,9-2.8c1.9-1.9,2.8-4.9,2.8-9v-8c0-3.1-0.8-5.4-2.3-6.9c-1.5-1.6-3.7-2.4-6.6-2.4c-5.9,0-8.9,3.6-8.9,10.8
		v2.4H229v-3.5c0-7.5,2.1-13.4,6.4-17.8c4.3-4.4,10.2-6.6,17.8-6.6c7.6,0,13.5,2.2,17.8,6.6c4.3,4.4,6.4,10.3,6.4,17.8v6.8
		c0,4.6-0.9,8.6-2.8,12c-1.9,3.3-4.6,6-8.3,7.8C274.3,191.7,278.4,198.5,278.4,208.3z"/>
	<path class="st6" d="M297.8,236.5c-4.6-4.6-6.9-10.6-6.9-18.1V162c0-7.5,2.3-13.5,6.9-18.1s10.7-6.9,18.2-6.9s13.5,2.3,18.2,6.9
		c4.6,4.6,6.9,10.6,6.9,18.1v56.4c0,7.5-2.3,13.5-6.9,18.1s-10.7,6.9-18.2,6.9C308.5,243.3,302.5,241,297.8,236.5z M323,225.9
		c1.7-1.8,2.5-4.3,2.5-7.5V162c0-3.2-0.8-5.8-2.5-7.5c-1.7-1.8-4-2.7-6.9-2.7s-5.3,0.9-6.9,2.7c-1.7,1.8-2.5,4.3-2.5,7.5v56.4
		c0,3.2,0.8,5.8,2.5,7.5c1.7,1.8,4,2.7,6.9,2.7S321.3,227.7,323,225.9z"/>
</g>
<circle class="st7" cx="102.4" cy="296.9" r="85"/>
<g>
	
		<linearGradient id="SVGID_00000155146405095623240080000004202659979956388280_" gradientUnits="userSpaceOnUse" x1="5.2" y1="102.8398" x2="199.7526" y2="102.8398" gradientTransform="matrix(1 0 0 -1 0 399.8898)">
		<stop  offset="0" style="stop-color:#B755E5"/>
		<stop  offset="4.796749e-02" style="stop-color:#AC5FE3"/>
		<stop  offset="0.275" style="stop-color:#7C8ADC"/>
		<stop  offset="0.4909" style="stop-color:#56ACD6"/>
		<stop  offset="0.6898" style="stop-color:#3BC4D2"/>
		<stop  offset="0.8656" style="stop-color:#2BD3D0"/>
		<stop  offset="1" style="stop-color:#25D8CF"/>
	</linearGradient>
	<path style="fill:url(#SVGID_00000155146405095623240080000004202659979956388280_);" d="M199.6,292.8c-1.4-27.5-12.5-50.6-33-68.9
		c-15.1-13.5-33.4-21.5-54.4-23.9l-4.1-0.5H96.8h-0.1c-1.2,0.1-2.3,0.3-3.4,0.4c-2.5,0.3-5,0.6-7.5,1c-21.9,3.9-40.7,14.3-55.7,31
		c-14,15.5-22.1,34-24.5,55.2c-0.1,1-0.2,1.9-0.3,2.9l-0.1,1.2v11.4v0.1c0.1,1.2,0.3,2.3,0.4,3.4c0.3,2.5,0.6,5,1.1,7.5
		c5.4,28.9,20.9,51.4,46.2,66.9c12.7,7.8,26.9,12.2,42.3,13.4c0.1,0,0.4,0.1,0.7,0.3c0.2,0.1,0.4,0.2,0.6,0.3l0.2,0.1h11.7l0.2-0.1
		c0.2-0.1,0.4-0.2,0.6-0.3c0.3-0.1,0.6-0.3,0.9-0.3c37-3.9,64.1-22.7,80.7-56.1C197.4,324.1,200.5,308.9,199.6,292.8z M183.5,297
		c-0.3,44.7-36.6,81-80.9,81c-0.1,0-0.1,0-0.3,0c-21.8-0.1-42.2-8.7-57.7-24.2c-15.2-15.4-23.5-35.6-23.4-57
		c0.3-44.7,36.6-81,80.9-81c0.1,0,0.1,0,0.3,0c21.8,0.1,42.2,8.7,57.7,24.2C175.4,255.4,183.7,275.7,183.5,297z"/>
	
		<linearGradient id="SVGID_00000053502917134467891850000013829654964518721418_" gradientUnits="userSpaceOnUse" x1="89.7" y1="120.591" x2="143.4387" y2="120.591" gradientTransform="matrix(1 0 0 -1 0 399.8898)">
		<stop  offset="0" style="stop-color:#B755E5"/>
		<stop  offset="4.796749e-02" style="stop-color:#AC5FE3"/>
		<stop  offset="0.275" style="stop-color:#7C8ADC"/>
		<stop  offset="0.4909" style="stop-color:#56ACD6"/>
		<stop  offset="0.6898" style="stop-color:#3BC4D2"/>
		<stop  offset="0.8656" style="stop-color:#2BD3D0"/>
		<stop  offset="1" style="stop-color:#25D8CF"/>
	</linearGradient>
	<path style="fill:url(#SVGID_00000053502917134467891850000013829654964518721418_);" d="M135,295.8c-6.7,0-13.5,0-20.3,0h-8.8
		v-38.7v-0.5c0-0.8,0-1.6-0.1-2.3c-0.2-3.2-2.4-6.1-5.4-7.2c-3.1-1-6.5-0.1-8.7,2.3c-1.8,2.1-2,4.5-2,6.3c0,10.3,0,20.6,0,30.9v16
		c0,6.2,3.1,9.3,9.2,9.3c4.8,0,9.7,0,14.5,0c4.9,0,9.7,0,14.6,0h6.1c0.8,0,1.4,0,2-0.1c2.6-0.2,4.7-1.5,6.1-3.7
		c1.7-2.6,1.7-5.4,0.3-8C140.8,297.3,138.3,295.8,135,295.8z"/>
</g>
<path class="st10" d="M234.8,391.5h-41.4c-9,0-16.4-7.4-16.4-16.4v-41.4c0-9,7.4-16.4,16.4-16.4h41.4c9,0,16.4,7.4,16.4,16.4v41.4
	C251.2,384.2,243.8,391.5,234.8,391.5z"/>
<g>
	<rect x="207.4" y="332.2" class="st7" width="15" height="46.5"/>
	<rect x="191.7" y="346.9" class="st7" width="46.5" height="15"/>
</g>
</svg>
