<?xml version="1.0" encoding="utf-8"?>
<!-- Generator: Adobe Illustrator 27.0.0, SVG Export Plug-In . SVG Version: 6.00 Build 0)  -->
<svg version="1.1" id="Capa_1" xmlns="http://www.w3.org/2000/svg" xmlns:xlink="http://www.w3.org/1999/xlink" x="0px" y="0px"
	 viewBox="0 0 512 512" style="enable-background:new 0 0 512 512;" xml:space="preserve">
<style type="text/css">
	.st0{fill:url(#SVGID_1_);}
	.st1{fill:url(#SVGID_00000062897350069260822970000009935947777565501373_);}
	.st2{fill:url(#SVGID_00000044871832707015898350000000945191778807526317_);}
	.st3{fill:#C8C2CE;}
	.st4{fill:url(#SVGID_00000090261205200159818970000001352477889004175499_);}
	.st5{fill:#DCDFEA;}
	.st6{fill:url(#SVGID_00000129172891170014437810000004160031990807865255_);}
	.st7{fill:url(#SVGID_00000150077069320120136920000002991379181269126019_);}
	.st8{fill:url(#SVGID_00000152981387286920780870000006759862509604467363_);}
	.st9{fill:url(#SVGID_00000161614292744999817090000018057969896526938283_);}
	.st10{fill:#DCE7F7;}
	.st11{fill:#C8CFDB;}
	.st12{fill:url(#SVGID_00000165213101516202956050000017690667254499335611_);}
</style>
<g>
	<g>
		
			<linearGradient id="SVGID_1_" gradientUnits="userSpaceOnUse" x1="47.4" y1="-69.3102" x2="207.4" y2="-69.3102" gradientTransform="matrix(-1 0 0 -1 521.6 181.8898)">
			<stop  offset="0" style="stop-color:#00A09C"/>
			<stop  offset="0.3381" style="stop-color:#10B8B2"/>
			<stop  offset="0.7448" style="stop-color:#1FCFC7"/>
			<stop  offset="1" style="stop-color:#25D8CF"/>
		</linearGradient>
		<path class="st0" d="M314.2,404.2v-66.1c51.8,0,94-42.1,94-94c0-36.9-21.8-70.6-55.5-85.8l27.1-60.1c57.4,25.8,94.4,83.2,94.4,146
			C474.2,332.5,402.4,404.2,314.2,404.2L314.2,404.2z"/>
	</g>
	
		<linearGradient id="SVGID_00000060751944076577596990000008093575136876980638_" gradientUnits="userSpaceOnUse" x1="198.5" y1="152.9398" x2="360.2005" y2="152.9398" gradientTransform="matrix(-1 0 0 -1 521.6 511.8898)">
		<stop  offset="0" style="stop-color:#00A09C"/>
		<stop  offset="0.3381" style="stop-color:#10B8B2"/>
		<stop  offset="0.7448" style="stop-color:#1FCFC7"/>
		<stop  offset="1" style="stop-color:#25D8CF"/>
	</linearGradient>
	<path style="fill:url(#SVGID_00000060751944076577596990000008093575136876980638_);" d="M197.5,333.7c-20,0-36.2,16.2-36.1,36.4
		c0,7.8,6.3,14.1,14.1,14.1h147.6v-50.5H197.5L197.5,333.7z"/>
	
		<linearGradient id="SVGID_00000146468928123918594670000001247793598945674404_" gradientUnits="userSpaceOnUse" x1="68.85" y1="119.1648" x2="149.9" y2="119.1648" gradientTransform="matrix(-1 0 0 -1 521.6 181.8898)">
		<stop  offset="0" style="stop-color:#00A09C"/>
		<stop  offset="0.3381" style="stop-color:#10B8B2"/>
		<stop  offset="0.7448" style="stop-color:#1FCFC7"/>
		<stop  offset="1" style="stop-color:#25D8CF"/>
	</linearGradient>
	<path style="fill:url(#SVGID_00000146468928123918594670000001247793598945674404_);" d="M371.7,57.6l45.7,45.7l29.8-29.9
		c7.4-7.5,7.4-19.6,0-27l-18.6-18.7c-7.5-7.4-19.6-7.4-27,0L371.7,57.6z"/>
	<path class="st3" d="M314.2,404.2c42.7,0,81.5-16.8,110.4-44.1l-19.9-31c-5.6-8.7-12.6-16-20.7-21.8c-17.3,19-42.1,31-69.8,31
		V404.2L314.2,404.2z"/>
	
		<linearGradient id="SVGID_00000129197013500082874000000016606054567792249733_" gradientUnits="userSpaceOnUse" x1="198.5" y1="152.8398" x2="262.5" y2="152.8398" gradientTransform="matrix(-1 0 0 -1 521.6 511.8898)">
		<stop  offset="0" style="stop-color:#00A09C"/>
		<stop  offset="0.3381" style="stop-color:#10B8B2"/>
		<stop  offset="0.7448" style="stop-color:#1FCFC7"/>
		<stop  offset="1" style="stop-color:#25D8CF"/>
	</linearGradient>
	<path style="fill:url(#SVGID_00000129197013500082874000000016606054567792249733_);" d="M259.1,384.3h64v-50.5h-54.3
		c-6.2,11.3-9.7,24.2-9.7,38V384.3z"/>
	<path class="st5" d="M338,320.9c-28,0-50.7,22.8-50.9,50.7v52.1l72.3,33l72.3-33l-50.9-79.4C371.4,329.7,355.4,320.9,338,320.9
		L338,320.9z"/>
	
		<linearGradient id="SVGID_00000109745587507943240780000018201470121337571991_" gradientUnits="userSpaceOnUse" x1="163.7" y1="138.5898" x2="198.5" y2="138.5898" gradientTransform="matrix(-1 0 0 -1 521.6 511.8898)">
		<stop  offset="0" style="stop-color:#00A09C"/>
		<stop  offset="0.3381" style="stop-color:#10B8B2"/>
		<stop  offset="0.7448" style="stop-color:#1FCFC7"/>
		<stop  offset="1" style="stop-color:#25D8CF"/>
	</linearGradient>
	<circle style="fill:url(#SVGID_00000109745587507943240780000018201470121337571991_);" cx="340.5" cy="373.3" r="17.4"/>
	
		<linearGradient id="SVGID_00000073709889723068643140000004703949240301995701_" gradientUnits="userSpaceOnUse" x1="73.9" y1="360.5398" x2="168.9" y2="360.5398" gradientTransform="matrix(-1 0 0 -1 521.6 511.8898)">
		<stop  offset="0" style="stop-color:#00A09C"/>
		<stop  offset="0.3381" style="stop-color:#10B8B2"/>
		<stop  offset="0.7448" style="stop-color:#1FCFC7"/>
		<stop  offset="1" style="stop-color:#25D8CF"/>
	</linearGradient>
	<path style="fill:url(#SVGID_00000073709889723068643140000004703949240301995701_);" d="M379.8,98.3l-27.1,60.1
		c21,9.3,37.3,26,46.7,46l48.3-48.2C431.3,131.3,408,111,379.8,98.3z"/>
	<path class="st5" d="M226.6,159.2l89.1,89.1l113.1-113.1c12-11.9,12-31.4,0-43.4l-45.7-45.7c-11.9-12-31.4-12-43.4,0L226.6,159.2z"
		/>
	<path class="st3" d="M291.3,223.9l24.4,24.4l113.1-113.1c12-11.9,12-31.4,0-43.4l-45.7-45.7c-11.9-12-31.4-12-43.4,0l-1.4,1.4
		c15.2,20,23.9,43.2,23.9,68.1C362.2,159.9,334.4,199.4,291.3,223.9z"/>
	
		<linearGradient id="SVGID_00000019655453055969012540000017788499101329642938_" gradientUnits="userSpaceOnUse" x1="179.825" y1="308.1898" x2="321.1" y2="308.1898" gradientTransform="matrix(-1 0 0 -1 521.6 511.8898)">
		<stop  offset="0" style="stop-color:#00A09C"/>
		<stop  offset="0.3381" style="stop-color:#10B8B2"/>
		<stop  offset="0.7448" style="stop-color:#1FCFC7"/>
		<stop  offset="1" style="stop-color:#25D8CF"/>
	</linearGradient>
	<path style="fill:url(#SVGID_00000019655453055969012540000017788499101329642938_);" d="M205.3,157c-6.4,6.5-6.4,16.9,0,23.4
		l89.1,89.1c6.5,6.5,16.9,6.5,23.4,0l19.1-19.1c6.5-6.5,6.5-16.9,0-23.4l-89.1-89.1c-6.5-6.5-16.9-6.5-23.4,0L205.3,157L205.3,157z"
		/>
	
		<linearGradient id="SVGID_00000134962100285996323580000011381594926417885603_" gradientUnits="userSpaceOnUse" x1="54.5" y1="55.0398" x2="414.2" y2="55.0398" gradientTransform="matrix(-1 0 0 -1 521.6 511.8898)">
		<stop  offset="0" style="stop-color:#00A09C"/>
		<stop  offset="0.3381" style="stop-color:#10B8B2"/>
		<stop  offset="0.7448" style="stop-color:#1FCFC7"/>
		<stop  offset="1" style="stop-color:#25D8CF"/>
	</linearGradient>
	<path style="fill:url(#SVGID_00000134962100285996323580000011381594926417885603_);" d="M152.4,423.8c-24.8,0-45,20.1-45,45
		c0,11.6,9.5,21.1,21.1,21.1H452c8.3,0,15.1-6.7,15.1-15.1v-15.6c0-19.6-15.9-35.4-35.4-35.4H152.4L152.4,423.8z"/>
</g>
<path class="st10" d="M196,99.9l-21.1-4.2c-1.3-4.6-3.2-9.1-5.5-13.4l11.7-17.6c1.4-2.2,1.2-5.1-0.7-7l-15.7-15.7
	c-1.9-1.9-4.7-2.1-7-0.7l-17.6,11.7c-4.3-2.3-8.7-4.1-13.4-5.5l-4.2-21.1c-0.5-2.5-2.8-4.4-5.4-4.4H95.1c-2.6,0-4.9,1.9-5.4,4.4
	l-4.2,21.1c-4.6,1.4-9.1,3.2-13.4,5.5L54.6,41.5c-2.2-1.4-5.1-1.2-6.9,0.7L31.9,57.9c-1.9,1.9-2.1,4.7-0.7,7L43,82.4
	c-2.3,4.3-4.2,8.7-5.5,13.4L16.3,100c-2.5,0.5-4.4,2.8-4.4,5.4v22.1c0,2.6,1.9,4.9,4.4,5.4l21.1,4.2c1.3,4.6,3.2,9.1,5.5,13.4
	L31.2,168c-1.4,2.2-1.2,5.1,0.7,7l15.7,15.7c1.9,1.9,4.7,2.1,7,0.7l17.6-11.7c4.3,2.3,8.7,4.1,13.4,5.5l4.2,21.1
	c0.5,2.5,2.8,4.4,5.4,4.4h22.1c2.6,0,4.9-1.9,5.4-4.4l4.2-21.1c4.6-1.4,9.1-3.2,13.4-5.5l17.6,11.7c2.2,1.4,5.1,1.2,7-0.7l15.7-15.7
	c1.9-1.9,2.1-4.7,0.7-7l-11.7-17.6c2.3-4.3,4.2-8.7,5.5-13.4l21.1-4.2c2.5-0.5,4.4-2.8,4.4-5.4v-22.1
	C200.5,102.7,198.5,100.5,196,99.9z M106.2,149.6c-18.2,0-33.1-14.9-33.1-33.1c0-18.2,14.9-33.1,33.1-33.1s33.1,14.9,33.1,33.1
	S124.4,149.6,106.2,149.6z"/>
<path class="st11" d="M200.5,105.4v22.1c0,2.6-1.9,4.9-4.4,5.4l-21.1,4.2c-1.3,4.6-3.2,9.1-5.5,13.4l11.7,17.6
	c1.4,2.2,1.2,5.1-0.7,7l-15.7,15.7c-1.9,1.9-4.7,2.1-7,0.7l-17.6-11.7c-4.3,2.3-8.7,4.1-13.4,5.5l-4.2,21.1
	c-0.5,2.5-2.8,4.4-5.4,4.4h-11v-61.2c18.2,0,33.1-14.9,33.1-33.1c0-18.2-14.9-33.1-33.1-33.1V22.2h11c2.6,0,4.9,1.9,5.4,4.4
	l4.2,21.1c4.6,1.4,9.1,3.2,13.4,5.5l17.6-11.7c2.2-1.4,5.1-1.2,7,0.7l15.7,15.7c1.9,1.9,2.1,4.7,0.7,7l-11.7,17.6
	c2.3,4.3,4.2,8.7,5.5,13.4L196,100C198.5,100.5,200.5,102.7,200.5,105.4z"/>
<linearGradient id="SVGID_00000060731428961450607280000012657286343457735090_" gradientUnits="userSpaceOnUse" x1="81.3304" y1="601.4644" x2="131.0206" y2="515.3986" gradientTransform="matrix(1 0 0 1 0 -442)">
	<stop  offset="0" style="stop-color:#683884"/>
	<stop  offset="0.1921" style="stop-color:#734B8F"/>
	<stop  offset="0.4778" style="stop-color:#80619C"/>
	<stop  offset="0.752" style="stop-color:#876EA3"/>
	<stop  offset="1" style="stop-color:#8A73A6"/>
</linearGradient>
<path style="fill:url(#SVGID_00000060731428961450607280000012657286343457735090_);" d="M106.2,66.7c-27.4,0-49.7,22.3-49.7,49.7
	s22.3,49.7,49.7,49.7s49.7-22.3,49.7-49.7S133.6,66.7,106.2,66.7z M106.2,144c-15.2,0-27.6-12.4-27.6-27.6S91,88.8,106.2,88.8
	s27.6,12.4,27.6,27.6S121.4,144,106.2,144z"/>
</svg>
