<?xml version="1.0" encoding="utf-8"?>
<!-- Generator: Adobe Illustrator 27.0.0, SVG Export Plug-In . SVG Version: 6.00 Build 0)  -->
<svg version="1.1" id="Capa_1" xmlns="http://www.w3.org/2000/svg" xmlns:xlink="http://www.w3.org/1999/xlink" x="0px" y="0px"
	 viewBox="0 0 400 400" style="enable-background:new 0 0 400 400;" xml:space="preserve">
<style type="text/css">
	.st0{fill:url(#SVGID_1_);}
	.st1{fill:url(#SVGID_00000110467904878764651840000010439979972903689129_);}
	.st2{fill:#F0F0F0;}
	.st3{fill:#D9D9D9;}
	.st4{fill:#BCBCBC;}
	.st5{fill:#E3E3E3;}
	.st6{fill:url(#SVGID_00000147937303724554214440000002453577326372778671_);}
	.st7{fill:url(#SVGID_00000054951203719467653500000006317575022924458680_);}
	.st8{fill:url(#SVGID_00000019659634798278000940000007215463810047912881_);}
	.st9{fill:#FC7C81;}
	.st10{fill:#DCE7F7;}
	.st11{fill:#C8CFDB;}
	.st12{fill:url(#SVGID_00000070806860176261126940000014608636842367488671_);}
</style>
<g>
	<linearGradient id="SVGID_1_" gradientUnits="userSpaceOnUse" x1="114.9603" y1="238.1861" x2="382.1747" y2="238.1861">
		<stop  offset="0" style="stop-color:#00A09C"/>
		<stop  offset="0.3381" style="stop-color:#10B8B2"/>
		<stop  offset="0.7448" style="stop-color:#1FCFC7"/>
		<stop  offset="1" style="stop-color:#25D8CF"/>
	</linearGradient>
	<path class="st0" d="M356.6,84.9H140.5c-14.1,0-25.5,11.8-25.5,26.5v253.7c0,14.6,11.4,26.5,25.5,26.5h216.1
		c14.1,0,25.5-11.8,25.5-26.5V111.3C382.2,96.7,370.7,84.9,356.6,84.9z"/>
	
		<linearGradient id="SVGID_00000162340303727972766120000013090309935640729262_" gradientUnits="userSpaceOnUse" x1="147.246" y1="117.3444" x2="349.8898" y2="117.3444">
		<stop  offset="0" style="stop-color:#00A09C"/>
		<stop  offset="0.3381" style="stop-color:#10B8B2"/>
		<stop  offset="0.7448" style="stop-color:#1FCFC7"/>
		<stop  offset="1" style="stop-color:#25D8CF"/>
	</linearGradient>
	<path style="fill:url(#SVGID_00000162340303727972766120000013090309935640729262_);" d="M147.2,84.9v31.9c0,18.2,14.3,33,31.9,33
		H318c17.6,0,31.9-14.8,31.9-33V84.9H147.2z"/>
	<path class="st2" d="M140.5,366.3c-0.6,0-1.2-0.5-1.2-1.2V111.3c0-0.7,0.5-1.2,1.2-1.2h216.1c0.6,0,1.2,0.5,1.2,1.2v253.7
		c0,0.7-0.5,1.2-1.2,1.2L140.5,366.3L140.5,366.3z"/>
	<path class="st3" d="M147.2,110.1v6.7c0,18.2,14.3,33,31.9,33H318c17.6,0,31.9-14.8,31.9-33v-6.7
		C349.9,110.1,147.2,110.1,147.2,110.1z"/>
	<path class="st4" d="M318,59.7h-38c0-18-14.1-32.5-31.4-32.5s-31.4,14.6-31.4,32.5h-38c-5.9,0-10.7,4.9-10.7,11v46.1
		c0,6.1,4.8,11,10.7,11H318c5.9,0,10.7-4.9,10.7-11V70.7C328.7,64.6,323.9,59.7,318,59.7z"/>
	<ellipse class="st5" cx="248.6" cy="57.8" rx="11.2" ry="11.6"/>
	
		<linearGradient id="SVGID_00000165198160309152338940000017843523719421000623_" gradientUnits="userSpaceOnUse" x1="184.7583" y1="248.1672" x2="312.3767" y2="248.1672">
		<stop  offset="0" style="stop-color:#683884"/>
		<stop  offset="0.1921" style="stop-color:#734B8F"/>
		<stop  offset="0.4778" style="stop-color:#80619C"/>
		<stop  offset="0.752" style="stop-color:#876EA3"/>
		<stop  offset="1" style="stop-color:#8A73A6"/>
	</linearGradient>
	<path style="fill:url(#SVGID_00000165198160309152338940000017843523719421000623_);" d="M307.1,253.7h-117c-2.9,0-5.3-2.5-5.3-5.5
		c0-3,2.4-5.5,5.3-5.5h117c2.9,0,5.3,2.5,5.3,5.5C312.4,251.2,310,253.7,307.1,253.7z"/>
	
		<linearGradient id="SVGID_00000155858586819373024500000006105000563711126968_" gradientUnits="userSpaceOnUse" x1="184.7583" y1="281.3574" x2="312.3767" y2="281.3574">
		<stop  offset="0" style="stop-color:#683884"/>
		<stop  offset="0.1921" style="stop-color:#734B8F"/>
		<stop  offset="0.4778" style="stop-color:#80619C"/>
		<stop  offset="0.752" style="stop-color:#876EA3"/>
		<stop  offset="1" style="stop-color:#8A73A6"/>
	</linearGradient>
	<path style="fill:url(#SVGID_00000155858586819373024500000006105000563711126968_);" d="M307.1,286.9h-117c-2.9,0-5.3-2.5-5.3-5.5
		s2.4-5.5,5.3-5.5h117c2.9,0,5.3,2.5,5.3,5.5C312.4,284.4,310,286.9,307.1,286.9z"/>
	
		<linearGradient id="SVGID_00000173142141480732483140000015272727837399277721_" gradientUnits="userSpaceOnUse" x1="184.7583" y1="314.5475" x2="312.3767" y2="314.5475">
		<stop  offset="0" style="stop-color:#683884"/>
		<stop  offset="0.1921" style="stop-color:#734B8F"/>
		<stop  offset="0.4778" style="stop-color:#80619C"/>
		<stop  offset="0.752" style="stop-color:#876EA3"/>
		<stop  offset="1" style="stop-color:#8A73A6"/>
	</linearGradient>
	<path style="fill:url(#SVGID_00000173142141480732483140000015272727837399277721_);" d="M307.1,320h-117c-2.9,0-5.3-2.5-5.3-5.5
		s2.4-5.5,5.3-5.5h117c2.9,0,5.3,2.5,5.3,5.5S310,320,307.1,320z"/>
	<polygon class="st9" points="278.6,175.1 259.8,175.1 259.8,155.6 237.4,155.6 237.4,175.1 218.5,175.1 218.5,198.3 237.4,198.3 
		237.4,217.8 259.8,217.8 259.8,198.3 278.6,198.3 	"/>
</g>
<path class="st10" d="M147.8,72.1l-16.2-3.2c-1-3.5-2.5-7-4.2-10.3l9-13.5c1.1-1.7,0.9-3.9-0.5-5.4l-12.1-12.1
	c-1.5-1.5-3.6-1.6-5.4-0.5l-13.5,9c-3.3-1.8-6.7-3.2-10.3-4.2l-3.2-16.2c-0.4-1.9-2.2-3.4-4.2-3.4H70.1c-2,0-3.8,1.5-4.2,3.4
	l-3.2,16.2c-3.5,1.1-7,2.5-10.3,4.2l-13.5-8.9c-1.7-1.1-3.9-0.9-5.3,0.5L21.5,39.7c-1.5,1.5-1.6,3.6-0.5,5.4L30,58.6
	c-1.8,3.3-3.2,6.7-4.2,10.3L9.4,72.1c-1.9,0.4-3.4,2.2-3.4,4.2v17c0,2,1.5,3.8,3.4,4.2l16.2,3.2c1,3.5,2.5,7,4.2,10.3l-9,13.5
	c-1.1,1.7-0.9,3.9,0.5,5.4L33.5,142c1.5,1.5,3.6,1.6,5.4,0.5l13.5-9c3.3,1.8,6.7,3.2,10.3,4.2L66,154c0.4,1.9,2.2,3.4,4.2,3.4h17
	c2,0,3.8-1.5,4.2-3.4l3.2-16.2c3.5-1.1,7-2.5,10.3-4.2l13.5,9c1.7,1.1,3.9,0.9,5.4-0.5l12.1-12.1c1.5-1.5,1.6-3.6,0.5-5.4l-9-13.5
	c1.8-3.3,3.2-6.7,4.2-10.3l16.2-3.2c1.9-0.4,3.4-2.2,3.4-4.2v-17C151.3,74.2,149.7,72.5,147.8,72.1z M78.7,110.3
	c-14,0-25.5-11.5-25.5-25.5s11.5-25.5,25.5-25.5s25.5,11.5,25.5,25.5C104.1,98.9,92.7,110.3,78.7,110.3z"/>
<path class="st11" d="M151.3,76.3v17c0,2-1.5,3.8-3.4,4.2l-16.2,3.2c-1,3.5-2.5,7-4.2,10.3l9,13.5c1.1,1.7,0.9,3.9-0.5,5.4
	l-12.1,12.1c-1.5,1.5-3.6,1.6-5.4,0.5l-13.5-9c-3.3,1.8-6.7,3.2-10.3,4.2l-3.2,16.2c-0.4,1.9-2.2,3.4-4.2,3.4h-8.5v-47.1
	c14,0,25.5-11.5,25.5-25.5S92.7,59.4,78.7,59.4V12.3h8.5c2,0,3.8,1.5,4.2,3.4l3.2,16.2c3.5,1.1,7,2.5,10.3,4.2l13.5-9
	c1.7-1.1,3.9-0.9,5.4,0.5l12.1,12.1c1.5,1.5,1.6,3.6,0.5,5.4l-9,13.5c1.8,3.3,3.2,6.7,4.2,10.3l16.2,3.2
	C149.7,72.5,151.3,74.2,151.3,76.3z"/>
<linearGradient id="SVGID_00000023252794458928554350000011321116630780876963_" gradientUnits="userSpaceOnUse" x1="59.5343" y1="-160.0105" x2="97.7878" y2="-93.7536" gradientTransform="matrix(1 0 0 -1 0 -42.1102)">
	<stop  offset="0" style="stop-color:#683884"/>
	<stop  offset="0.1921" style="stop-color:#734B8F"/>
	<stop  offset="0.4778" style="stop-color:#80619C"/>
	<stop  offset="0.752" style="stop-color:#876EA3"/>
	<stop  offset="1" style="stop-color:#8A73A6"/>
</linearGradient>
<path style="fill:url(#SVGID_00000023252794458928554350000011321116630780876963_);" d="M78.7,46.5c-21.1,0-38.3,17.2-38.3,38.3
	S57.6,123,78.7,123s38.3-17.2,38.3-38.3S99.8,46.5,78.7,46.5z M78.7,106c-11.7,0-21.2-9.5-21.2-21.2S67,63.5,78.7,63.5
	s21.2,9.5,21.2,21.2S90.4,106,78.7,106z"/>
</svg>
