<?xml version="1.0" encoding="utf-8"?>
<!-- Generator: Adobe Illustrator 27.0.0, SVG Export Plug-In . SVG Version: 6.00 Build 0)  -->
<svg version="1.1" id="Layer_1" xmlns="http://www.w3.org/2000/svg" xmlns:xlink="http://www.w3.org/1999/xlink" x="0px" y="0px"
	 viewBox="0 0 512 476" style="enable-background:new 0 0 512 476;" xml:space="preserve">
<style type="text/css">
	.st0{fill:url(#SVGID_1_);}
	.st1{fill:url(#SVGID_00000034086505364244338590000001353003369201285789_);}
	.st2{fill:url(#SVGID_00000070821042898526650790000009326396870652843180_);}
	.st3{fill:#BDD3DD;}
	.st4{fill:url(#SVGID_00000006675093136706990420000012492603717413605054_);}
	.st5{fill:url(#SVGID_00000089575263866089465130000014974641835754091395_);}
	.st6{fill:url(#SVGID_00000148647753464309817090000018244479414709573017_);}
	.st7{fill:#FFFFFF;}
	.st8{fill:url(#SVGID_00000158744462825038660870000014271745432544972724_);}
</style>
<linearGradient id="SVGID_1_" gradientUnits="userSpaceOnUse" x1="127.103" y1="37.3293" x2="220.4688" y2="37.3293">
	<stop  offset="0" style="stop-color:#00A09C"/>
	<stop  offset="0.3381" style="stop-color:#10B8B2"/>
	<stop  offset="0.7448" style="stop-color:#1FCFC7"/>
	<stop  offset="1" style="stop-color:#25D8CF"/>
</linearGradient>
<path class="st0" d="M196.4,17.8c2.7,1,5.4,1.7,7.9,3c10,5.2,15.5,13.5,16,24.9c0.2,3.7,0,7.3,0,11.2c-31.2,0-62,0-93,0
	c-0.7-10-0.8-19.7,5.9-28.1c4.6-5.9,11-8.8,17.8-10.9C166.2,17.8,181.3,17.8,196.4,17.8z"/>
<linearGradient id="SVGID_00000181794828144287375540000013030353153384819856_" gradientUnits="userSpaceOnUse" x1="69.8384" y1="152.9972" x2="277.8081" y2="152.9972">
	<stop  offset="0" style="stop-color:#F99C52"/>
	<stop  offset="0.2704" style="stop-color:#F5964B"/>
	<stop  offset="0.6725" style="stop-color:#E88436"/>
	<stop  offset="1" style="stop-color:#DB7121"/>
</linearGradient>
<path style="fill:url(#SVGID_00000181794828144287375540000013030353153384819856_);" d="M70,222.9c-1.4-28.2,7.9-51.5,31.2-67.4
	c18-12.3,26.8-28.3,26-50c-0.3-7.4,0-14.8,0-22.4c31.1,0,61.9,0,93.3,0c0,5.4-0.2,10.7,0,16.1c0.3,7.5,0.1,15.2,1.4,22.5
	c2.5,13.5,10,23.9,21.5,31.5c24.3,16.1,35.4,38.9,34.3,67.8c0,0.5-0.1,1.1-0.3,1.9C208.4,222.9,139.5,222.9,70,222.9z"/>
<linearGradient id="SVGID_00000156570664115649872510000007166694165445705094_" gradientUnits="userSpaceOnUse" x1="70.0501" y1="423.9223" x2="277.4333" y2="423.9223">
	<stop  offset="0" style="stop-color:#F99C52"/>
	<stop  offset="0.2704" style="stop-color:#F5964B"/>
	<stop  offset="0.6725" style="stop-color:#E88436"/>
	<stop  offset="1" style="stop-color:#DB7121"/>
</linearGradient>
<path style="fill:url(#SVGID_00000156570664115649872510000007166694165445705094_);" d="M70.1,454.5c0-20.5,0-40.7,0-61.1
	c69.1,0,138.1,0,207.4,0c0,20.3,0,40.6,0,61.1C208.4,454.5,139.4,454.5,70.1,454.5z"/>
<path class="st3" d="M340.2,180.8c20.5,0,40.4,0,61,0c0,1.9,0,3.7,0,5.5c0,67.1,0,134.3,0,201.4c0,2,0,4.3-0.7,5.9
	c-9.7,20.3-19.5,40.6-29.6,61.5c-0.9-1.6-1.7-2.8-2.3-4c-8.9-18.4-17.8-36.8-26.6-55.2c-1.1-2.2-1.7-5-1.7-7.6
	c-0.1-67.5-0.1-135-0.1-202.4C340.2,184.3,340.2,182.8,340.2,180.8z"/>
<linearGradient id="SVGID_00000150812286689753921330000017041023934906468015_" gradientUnits="userSpaceOnUse" x1="309.3843" y1="160.9505" x2="432.1026" y2="160.9505">
	<stop  offset="0" style="stop-color:#00A09C"/>
	<stop  offset="0.3381" style="stop-color:#10B8B2"/>
	<stop  offset="0.7448" style="stop-color:#1FCFC7"/>
	<stop  offset="1" style="stop-color:#25D8CF"/>
</linearGradient>
<path style="fill:url(#SVGID_00000150812286689753921330000017041023934906468015_);" d="M309.4,180.8c0-13.4,0-26.4,0-39.6
	c41,0,81.7,0,122.7,0c0,13.3,0,26.3,0,39.6C391.3,180.8,350.5,180.8,309.4,180.8z"/>
<linearGradient id="SVGID_00000137130737967369286050000017180542173103284920_" gradientUnits="userSpaceOnUse" x1="340.5107" y1="101.7953" x2="401.2005" y2="101.7953">
	<stop  offset="0" style="stop-color:#00A09C"/>
	<stop  offset="0.3381" style="stop-color:#10B8B2"/>
	<stop  offset="0.7448" style="stop-color:#1FCFC7"/>
	<stop  offset="1" style="stop-color:#25D8CF"/>
</linearGradient>
<path style="fill:url(#SVGID_00000137130737967369286050000017180542173103284920_);" d="M340.9,131.2c0-11.9-1-23.2,0.2-34.2
	c1.5-14.2,15.3-24.6,30-24.5c14.4,0.1,27.8,10.8,29.3,24.8c1.1,10.4,0.6,21,0.7,31.5c0,0.8-1.4,2.2-2.2,2.2
	C379.6,131.2,360.3,131.2,340.9,131.2z"/>
<linearGradient id="SVGID_00000045592065308828689560000017917585495361091201_" gradientUnits="userSpaceOnUse" x1="69.8384" y1="308.8284" x2="276.691" y2="308.8284">
	<stop  offset="0" style="stop-color:#00A09C"/>
	<stop  offset="0.3381" style="stop-color:#10B8B2"/>
	<stop  offset="0.7448" style="stop-color:#1FCFC7"/>
	<stop  offset="1" style="stop-color:#25D8CF"/>
</linearGradient>
<rect x="69.8" y="218.8" style="fill:url(#SVGID_00000045592065308828689560000017917585495361091201_);" width="206.9" height="180"/>
<g>
	<path class="st7" d="M248.3,307c-0.2,0.8-0.4,1.7-0.6,2.5c-1.7,7.5-5.6,13.5-12,17.6c-1.9,1.3-4.3,2.1-6.6,2.6
		c-3.7,0.8-6.5-0.7-8.4-3.9c-1.8-2.9-2.5-6.3-2.9-9.6c-0.7-6.3-1.1-12.6-0.1-18.9c0.8-5,2.4-9.8,5.6-13.8c1.3-1.5,2.9-3,4.6-4
		c4-2.3,8.6-1.5,12.3,2c4,3.8,5.9,8.7,7,14c0.4,1.7,0.6,3.4,0.9,5.2C248.3,302.9,248.3,305,248.3,307z"/>
	<path class="st7" d="M98.2,300.9c0.5-2.6,0.9-5.2,1.5-7.7c0.9-3.4,2.3-6.6,4.5-9.4c0.1-0.1,0.2-0.2,0.3-0.3c5.4-6.7,13-6.7,18.4,0
		c3.6,4.5,5.4,9.7,6,15.3c0.8,7.7,0.5,15.5-1.4,23.1c-0.3,1.1-0.7,2.2-1.3,3.3c-2.1,4.3-5.6,5.8-10.1,4.6c-4.6-1.2-8.1-4.1-11.2-7.7
		c-3.5-4.1-5.7-8.9-6.5-14.3c0-0.2-0.2-0.4-0.3-0.7C98.2,305,98.2,302.9,98.2,300.9z"/>
	<path class="st7" d="M175.2,304.2c6.8,0.1,14.2,3.4,20.7,8.8c9.5,7.9,16.1,17.8,18.1,30c2.1,12.8-1.2,24.1-12.2,32.2
		c-3.7,2.7-8,4.4-12.4,5.2c-0.8,0.2-1.8-0.1-2.4-0.5c-1.6-1.3-3-2.9-4.4-4.4c-2.2-2.5-4.3-5.1-6.5-7.5c-2.3-2.3-3.4-2.4-5.6,0
		c-2.3,2.4-4.3,5-6.5,7.5c-1.4,1.6-2.8,3.1-4.4,4.5c-0.6,0.5-1.7,0.7-2.5,0.5c-15-3-24.6-14.6-25.1-29.8c-0.3-10.6,3.6-19.7,9.6-28
		c5.4-7.4,12.1-13.1,20.7-16.3C165.8,304.9,169.5,304.2,175.2,304.2z M139.7,346.8c-0.1,2.6,0.8,3.8,2.3,3.9c1.7,0.1,2.7-1,2.8-3
		c0-0.4,0-0.8,0.1-1.2c1.8-14,16-30.1,28.5-29.4c1.5,0.1,2.6-1.3,2.5-2.7c-0.1-1.4-1.3-2.5-2.8-2.3c-2.3,0.2-4.7,0.5-6.9,1.1
		c-7.4,2.3-13,7.1-17.7,13.1C143.7,332.5,140.3,339.5,139.7,346.8z"/>
	<path class="st7" d="M212.1,272.4c-0.1,7.8-1.7,14.3-6,20c-2.2,2.9-4.9,5.1-8.4,6.1c-5.2,1.5-9.7,0-13.6-3.6
		c-4.5-4.2-6.8-9.7-7.8-15.7c-1.2-7.2-0.4-14.3,2.8-20.9c1.4-2.9,3.3-5.5,5.9-7.5c5.8-4.6,12.9-4.4,18.4,0.5
		c4.9,4.4,7.1,10.1,8.2,16.4C211.9,269.5,212,271.4,212.1,272.4z"/>
	<path class="st7" d="M134.5,274.1c0.1-7.8,1.6-14.3,5.9-19.9c2.5-3.3,5.6-5.7,9.7-6.5c4.9-0.9,9,0.7,12.4,4
		c4.4,4.2,6.7,9.6,7.7,15.6c1.3,7.7,0.4,15.2-3.5,22.1c-1.2,2.2-2.9,4.2-4.7,5.9c-5.6,5.2-13.2,5.1-18.9,0
		c-4.9-4.4-7.2-10.1-8.2-16.4C134.6,277,134.6,275.2,134.5,274.1z"/>
	<path class="st7" d="M139.7,346.8c0.7-7.3,4-14.2,8.8-20.5c4.6-6,10.2-10.9,17.7-13.1c2.2-0.7,4.6-0.9,6.9-1.1
		c1.6-0.2,2.7,0.9,2.8,2.3c0.1,1.4-0.9,2.8-2.5,2.7c-12.5-0.7-26.7,15.4-28.5,29.4c-0.1,0.4-0.1,0.8-0.1,1.2c-0.1,2-1.1,3.1-2.8,3
		C140.5,350.5,139.5,349.3,139.7,346.8z"/>
</g>
<linearGradient id="SVGID_00000018943363632947234770000000965636788435223681_" gradientUnits="userSpaceOnUse" x1="211.0527" y1="29.2133" x2="135.4805" y2="104.7855">
	<stop  offset="0" style="stop-color:#00A09C"/>
	<stop  offset="0.3381" style="stop-color:#10B8B2"/>
	<stop  offset="0.7448" style="stop-color:#1FCFC7"/>
	<stop  offset="1" style="stop-color:#25D8CF"/>
</linearGradient>
<rect x="113.8" y="50.9" style="fill:url(#SVGID_00000018943363632947234770000000965636788435223681_);" width="118.9" height="32.2"/>
</svg>
