<?xml version="1.0" encoding="utf-8"?>
<!-- Generator: Adobe Illustrator 27.0.0, SVG Export Plug-In . SVG Version: 6.00 Build 0)  -->
<svg version="1.1" id="Layer_3" xmlns="http://www.w3.org/2000/svg" xmlns:xlink="http://www.w3.org/1999/xlink" x="0px" y="0px"
	 viewBox="0 0 512 512" style="enable-background:new 0 0 512 512;" xml:space="preserve">
<style type="text/css">
	.st0{clip-path:url(#SVGID_00000044867236524147437450000008043428221273691308_);fill:#DDEBFD;}
	.st1{fill:#FC6559;}
	.st2{fill:#BED9FD;}
	.st3{fill:url(#SVGID_00000160877811308920252700000002426403493707516575_);}
	.st4{fill:url(#SVGID_00000104683437810546044390000015932308630649735319_);}
	.st5{fill:url(#SVGID_00000055696121333622869580000011676931816038804137_);}
	.st6{fill:url(#SVGID_00000029010129479190390890000003400698395400792250_);}
	.st7{fill:url(#SVGID_00000145755991595670051580000001796479610420674747_);}
	.st8{fill:url(#SVGID_00000026852937226859340320000008849526652299759289_);}
	.st9{fill:url(#SVGID_00000037677868473825666700000015473341158705743787_);}
	.st10{fill:#8A4FA6;}
</style>
<g>
	<defs>
		<path id="SVGID_1_" d="M424.7,506.4H89.5c-17,0-30.8-13.9-30.8-30.8V36.4c0-17,13.9-30.8,30.8-30.8h335.1
			c17,0,30.8,13.9,30.8,30.8v439.1C455.5,492.5,441.6,506.4,424.7,506.4z"/>
	</defs>
	<clipPath id="SVGID_00000102545291656396302530000003556080106455956384_">
		<use xlink:href="#SVGID_1_"  style="overflow:visible;"/>
	</clipPath>
	<path style="clip-path:url(#SVGID_00000102545291656396302530000003556080106455956384_);fill:#DDEBFD;" d="M457.5,11.8v488.4
		c0,3.4-2.8,6.2-6.2,6.2H174L54.5,387V11.8c0-3.4,2.8-6.2,6.2-6.2h390.5C454.7,5.6,457.5,8.4,457.5,11.8L457.5,11.8z"/>
</g>
<path class="st1" d="M295.1,72.1h-23.3c-0.9,0-1.6-0.7-1.6-1.6V47.3c0-1.4-1.1-2.4-2.4-2.4h-23.7c-1.4,0-2.4,1.1-2.4,2.4v23.3
	c0,0.9-0.7,1.6-1.6,1.6h-23.3c-1.4,0-2.4,1.1-2.4,2.4v23.7c0,1.4,1.1,2.4,2.4,2.4h23.3c0.9,0,1.6,0.7,1.6,1.6v23.3
	c0,1.4,1.1,2.4,2.4,2.4h23.7c1.4,0,2.4-1.1,2.4-2.4v-23.3c0-0.9,0.7-1.6,1.6-1.6h23.3c1.4,0,2.4-1.1,2.4-2.4V74.5
	C297.5,73.2,296.5,72.1,295.1,72.1z"/>
<path class="st2" d="M176.1,506.4V399.2c0-6.8-5.5-12.3-12.3-12.3H56.6L176.1,506.4z"/>
<g>
	
		<linearGradient id="SVGID_00000024721284237239678250000006408497575277011122_" gradientUnits="userSpaceOnUse" x1="209.1" y1="-225.6102" x2="408" y2="-225.6102" gradientTransform="matrix(1 0 0 -1 0 181.8898)">
		<stop  offset="0" style="stop-color:#00A09C"/>
		<stop  offset="0.3381" style="stop-color:#10B8B2"/>
		<stop  offset="0.7448" style="stop-color:#1FCFC7"/>
		<stop  offset="1" style="stop-color:#25D8CF"/>
	</linearGradient>
	<path style="fill:url(#SVGID_00000024721284237239678250000006408497575277011122_);" d="M398.9,416.7H218.3
		c-5.1,0-9.2-4.1-9.2-9.2s4.1-9.2,9.2-9.2h180.5c5.1,0,9.2,4.1,9.2,9.2S403.9,416.7,398.9,416.7z"/>
	
		<linearGradient id="SVGID_00000100369889779077043360000000483514279398763708_" gradientUnits="userSpaceOnUse" x1="103.9" y1="-86.7101" x2="161.4045" y2="-86.7101" gradientTransform="matrix(1 0 0 -1 0 181.8898)">
		<stop  offset="0" style="stop-color:#00A09C"/>
		<stop  offset="0.3381" style="stop-color:#10B8B2"/>
		<stop  offset="0.7448" style="stop-color:#1FCFC7"/>
		<stop  offset="1" style="stop-color:#25D8CF"/>
	</linearGradient>
	<path style="fill:url(#SVGID_00000100369889779077043360000000483514279398763708_);" d="M152.3,277.8h-39.2
		c-5.1,0-9.2-4.1-9.2-9.2s4.1-9.2,9.2-9.2h39.2c5.1,0,9.2,4.1,9.2,9.2C161.5,273.7,157.4,277.8,152.3,277.8z"/>
	
		<linearGradient id="SVGID_00000160897727300093395480000007853588529055046057_" gradientUnits="userSpaceOnUse" x1="209.1" y1="-86.7101" x2="408" y2="-86.7101" gradientTransform="matrix(1 0 0 -1 0 181.8898)">
		<stop  offset="0" style="stop-color:#00A09C"/>
		<stop  offset="0.3381" style="stop-color:#10B8B2"/>
		<stop  offset="0.7448" style="stop-color:#1FCFC7"/>
		<stop  offset="1" style="stop-color:#25D8CF"/>
	</linearGradient>
	<path style="fill:url(#SVGID_00000160897727300093395480000007853588529055046057_);" d="M398.9,277.8H218.3
		c-5.1,0-9.2-4.1-9.2-9.2s4.1-9.2,9.2-9.2h180.5c5.1,0,9.2,4.1,9.2,9.2C408,273.7,403.9,277.8,398.9,277.8z"/>
	
		<linearGradient id="SVGID_00000118360073540613086370000018225682403348049079_" gradientUnits="userSpaceOnUse" x1="103.9" y1="-156.2101" x2="161.4045" y2="-156.2101" gradientTransform="matrix(1 0 0 -1 0 181.8898)">
		<stop  offset="0" style="stop-color:#00A09C"/>
		<stop  offset="0.3381" style="stop-color:#10B8B2"/>
		<stop  offset="0.7448" style="stop-color:#1FCFC7"/>
		<stop  offset="1" style="stop-color:#25D8CF"/>
	</linearGradient>
	<path style="fill:url(#SVGID_00000118360073540613086370000018225682403348049079_);" d="M152.3,347.3h-39.2
		c-5.1,0-9.2-4.1-9.2-9.2s4.1-9.2,9.2-9.2h39.2c5.1,0,9.2,4.1,9.2,9.2C161.5,343.2,157.4,347.3,152.3,347.3z"/>
	
		<linearGradient id="SVGID_00000027586841699562890140000000439491509080356782_" gradientUnits="userSpaceOnUse" x1="209.1" y1="-156.2101" x2="408" y2="-156.2101" gradientTransform="matrix(1 0 0 -1 0 181.8898)">
		<stop  offset="0" style="stop-color:#00A09C"/>
		<stop  offset="0.3381" style="stop-color:#10B8B2"/>
		<stop  offset="0.7448" style="stop-color:#1FCFC7"/>
		<stop  offset="1" style="stop-color:#25D8CF"/>
	</linearGradient>
	<path style="fill:url(#SVGID_00000027586841699562890140000000439491509080356782_);" d="M398.9,347.3H218.3
		c-5.1,0-9.2-4.1-9.2-9.2s4.1-9.2,9.2-9.2h180.5c5.1,0,9.2,4.1,9.2,9.2C408,343.2,403.9,347.3,398.9,347.3z"/>
</g>
<g>
	<g>
		
			<linearGradient id="SVGID_00000034090716223806082540000018328206429723449522_" gradientUnits="userSpaceOnUse" x1="572.8" y1="-122.5102" x2="800.1022" y2="-122.5102" gradientTransform="matrix(1 0 0 -1 0 181.8898)">
			<stop  offset="0" style="stop-color:#00A09C"/>
			<stop  offset="0.3381" style="stop-color:#10B8B2"/>
			<stop  offset="0.7448" style="stop-color:#1FCFC7"/>
			<stop  offset="1" style="stop-color:#25D8CF"/>
		</linearGradient>
		<path style="fill:url(#SVGID_00000034090716223806082540000018328206429723449522_);" d="M792.8,311.8H580.2
			c-4.1,0-7.4-3.3-7.4-7.4s3.3-7.4,7.4-7.4h212.5c4.1,0,7.4,3.3,7.4,7.4C800.2,308.5,796.8,311.8,792.8,311.8z"/>
	</g>
	<g>
		
			<linearGradient id="SVGID_00000053512750099815762120000017107045560627897731_" gradientUnits="userSpaceOnUse" x1="572.8" y1="-171.4102" x2="800.1022" y2="-171.4102" gradientTransform="matrix(1 0 0 -1 0 181.8898)">
			<stop  offset="0" style="stop-color:#00A09C"/>
			<stop  offset="0.3381" style="stop-color:#10B8B2"/>
			<stop  offset="0.7448" style="stop-color:#1FCFC7"/>
			<stop  offset="1" style="stop-color:#25D8CF"/>
		</linearGradient>
		<path style="fill:url(#SVGID_00000053512750099815762120000017107045560627897731_);" d="M792.8,360.7H580.2
			c-4.1,0-7.4-3.3-7.4-7.4s3.3-7.4,7.4-7.4h212.5c4.1,0,7.4,3.3,7.4,7.4C800.2,357.4,796.8,360.7,792.8,360.7z"/>
	</g>
</g>
<g>
	<path class="st10" d="M125.3,188c0,2.8-0.3,5.4-1,7.7c-0.6,2.3-1.6,4.2-2.9,5.9c-1.3,1.7-3,2.9-5.1,3.7c-2.1,0.9-4.5,1.3-7.3,1.3
		H98v-37.7h11c2.8,0,5.3,0.4,7.3,1.3c2.1,0.9,3.8,2.2,5.1,3.8c1.3,1.7,2.3,3.6,2.9,6C125,182.5,125.3,185.1,125.3,188z M116.4,188
		c0-3.8-0.6-6.6-2.1-8.6c-1.4-2-3.1-2.9-5.3-2.9h-2.2v22.8h2.2c2.2,0,3.9-0.9,5.3-2.9C115.7,194.4,116.4,191.6,116.4,188z"/>
	<path class="st10" d="M130.6,206.8V169h9v37.7L130.6,206.8L130.6,206.8z"/>
	<path class="st10" d="M164,206.8l-1.6-6.8h-8.9l-1.6,6.8h-8.8l9.5-37.7h11.1l9.5,37.7L164,206.8L164,206.8z M158.2,177.2H158
		l-3.4,16.1h6.7L158.2,177.2z"/>
	<path class="st10" d="M196.9,206.8c-1.7,0.5-3.9,0.8-6.3,0.8c-2.5,0-4.6-0.5-6.6-1.5c-1.9-0.9-3.6-2.3-5-4
		c-1.4-1.8-2.4-3.8-3.1-6.2c-0.8-2.4-1.1-5.1-1.1-8.1c0-2.9,0.3-5.6,1.1-8.1c0.8-2.4,1.7-4.6,3.1-6.3c1.4-1.8,2.9-3.1,4.8-4
		c1.8-0.9,4-1.5,6.3-1.5c2.7,0,4.9,0.4,6.7,1.3c1.8,0.8,3.2,2,4.2,3.3l-4.9,6.2c-1.3-1.8-3.1-2.7-5.5-2.7c-1.2,0-2.3,0.3-3.1,0.9
		c-0.9,0.6-1.6,1.5-2.3,2.5c-0.6,1-1.1,2.3-1.3,3.7c-0.3,1.5-0.4,2.9-0.4,4.6s0.1,3.1,0.4,4.6c0.2,1.5,0.6,2.7,1.3,3.7
		c0.5,1,1.3,1.9,2.2,2.6c0.9,0.6,1.9,0.9,3.1,0.9c1.3,0,2.4-0.3,3.1-0.8v-7h-4.2v-7.4h12v20.1C200.1,205.4,198.6,206.1,196.9,206.8z
		"/>
	<path class="st10" d="M224.6,206.8l-9.1-22.9h-0.2l0.2,22.9h-7.9V169h9.7l9.1,23.3h0.2l-0.2-23.3h7.7v37.7L224.6,206.8L224.6,206.8
		z"/>
	<path class="st10" d="M269.6,187.8c0,3-0.3,5.7-1.1,8.2c-0.8,2.5-1.7,4.6-3,6.3c-1.3,1.8-2.9,3.1-4.8,4c-1.8,0.9-4,1.5-6.3,1.5
		c-2.4,0-4.4-0.5-6.3-1.5c-1.8-0.9-3.5-2.3-4.8-4c-1.3-1.8-2.3-3.8-3-6.3c-0.8-2.5-1.1-5.2-1.1-8.2s0.3-5.7,1.1-8.1
		c0.6-2.4,1.6-4.5,2.9-6.2c1.3-1.8,2.9-3,4.8-4c1.8-0.9,4-1.5,6.4-1.5c2.4,0,4.4,0.5,6.3,1.5s3.5,2.3,4.8,4c1.3,1.8,2.3,3.8,3,6.2
		C269.3,182.1,269.6,184.8,269.6,187.8z M260.5,187.8c0-1.7-0.1-3.1-0.4-4.6c-0.2-1.5-0.6-2.6-1.2-3.6s-1.1-1.9-1.8-2.4
		c-0.8-0.6-1.6-0.8-2.6-0.8s-1.8,0.3-2.6,0.8c-0.8,0.6-1.4,1.3-1.8,2.4c-0.5,1-0.9,2.3-1.1,3.6c-0.2,1.5-0.3,2.9-0.3,4.6
		c0,1.7,0.1,3.1,0.3,4.6c0.2,1.5,0.6,2.7,1.1,3.6c0.5,1,1.1,1.9,1.8,2.5c0.8,0.6,1.6,0.9,2.6,0.9s1.8-0.3,2.6-0.9
		c0.8-0.6,1.4-1.5,1.8-2.5c0.5-1,0.9-2.3,1.2-3.6C260.3,190.9,260.5,189.5,260.5,187.8z M256.3,166h-5.9l5-7.7h7.2L256.3,166z"/>
	<path class="st10" d="M291.2,178.1c-0.6-0.7-1.4-1.3-2.4-1.8c-0.9-0.4-1.8-0.6-2.8-0.6c-1,0-1.9,0.3-2.7,0.9
		c-0.8,0.6-1.2,1.6-1.2,3c0,1.1,0.4,2.1,1.2,2.7c0.9,0.6,2.1,1.3,3.6,2.2c0.9,0.4,1.8,0.9,2.8,1.6c1,0.6,1.9,1.3,2.7,2.2
		c0.9,0.8,1.5,1.9,2.1,3.1c0.5,1.1,0.9,2.6,0.9,4.2c0,2.1-0.3,3.8-1,5.4s-1.6,2.8-2.7,3.8c-1.2,1-2.5,1.8-3.9,2.3
		c-1.5,0.5-3,0.7-4.6,0.7c-2.4,0-4.5-0.4-6.5-1.2c-1.9-0.8-3.5-1.9-4.6-3l4.5-6.4c0.9,0.8,1.8,1.6,2.9,2.1c1.1,0.5,2.3,0.7,3.4,0.7
		c1.1,0,1.9-0.3,2.7-1c0.8-0.7,1.1-1.7,1.1-2.8c0-1.2-0.4-2.2-1.3-3c-0.9-0.7-2.2-1.5-3.9-2.3c-1.1-0.5-2.1-1-3-1.7
		c-1-0.6-1.7-1.3-2.5-2.2c-0.8-0.8-1.3-1.9-1.7-3c-0.4-1.1-0.6-2.5-0.6-4c0-2.1,0.3-3.9,1.1-5.4c0.8-1.6,1.6-2.7,2.8-3.7
		c1.2-0.9,2.5-1.7,3.9-2.2c1.4-0.4,2.8-0.7,4.3-0.7c2.2,0,4.1,0.3,5.7,1c1.7,0.6,3.1,1.6,4.3,2.8L291.2,178.1z"/>
	<path class="st10" d="M312.6,176.3v30.5h-8.8v-30.5h-7.2V169h23.1v7.3H312.6z"/>
	<path class="st10" d="M323.3,206.8V169h9v37.7L323.3,206.8L323.3,206.8z"/>
	<path class="st10" d="M359.5,206.2c-1.7,0.9-4,1.5-6.7,1.5c-2.3,0-4.4-0.5-6.3-1.5c-1.8-0.9-3.5-2.4-4.8-4.1
		c-1.3-1.8-2.4-3.8-3.1-6.3c-0.8-2.4-1.1-5.1-1.1-8s0.3-5.6,1.1-8.1c0.8-2.5,1.7-4.6,3.1-6.3c1.3-1.8,2.9-3.1,4.8-4
		c1.8-0.9,4-1.5,6.3-1.5c2.6,0,4.9,0.4,6.6,1.3c1.7,0.9,3.1,2.1,4.2,3.4l-4.8,6.2c-0.6-0.8-1.4-1.6-2.3-2.1
		c-0.9-0.5-1.8-0.7-3.1-0.7c-1.2,0-2.2,0.3-3.1,0.9c-0.9,0.6-1.6,1.5-2.3,2.5c-0.6,1-1.1,2.3-1.4,3.7c-0.3,1.5-0.4,3-0.4,4.6
		c0,1.7,0.1,3.1,0.4,4.6c0.3,1.5,0.8,2.7,1.4,3.7s1.4,1.9,2.3,2.5c0.9,0.6,1.9,0.9,3.1,0.9s2.3-0.3,3.1-0.8c0.9-0.5,1.6-1.2,2.2-2.1
		l5,5.9C362.7,204.1,361.3,205.3,359.5,206.2z"/>
	<path class="st10" d="M395.6,187.8c0,3-0.3,5.7-1.1,8.2c-0.8,2.5-1.7,4.6-3,6.3c-1.3,1.8-2.9,3.1-4.8,4c-1.8,0.9-4,1.5-6.3,1.5
		c-2.4,0-4.4-0.5-6.3-1.5c-1.8-0.9-3.5-2.3-4.8-4c-1.3-1.8-2.3-3.8-3-6.3c-0.8-2.5-1.1-5.2-1.1-8.2s0.3-5.7,1.1-8.1
		c0.6-2.4,1.6-4.5,2.9-6.2c1.3-1.8,2.9-3,4.8-4c1.8-0.9,4-1.5,6.4-1.5s4.4,0.5,6.3,1.5s3.5,2.3,4.8,4c1.3,1.8,2.3,3.8,3,6.2
		C395.2,182.1,395.6,184.8,395.6,187.8z M386.5,187.8c0-1.7-0.1-3.1-0.4-4.6c-0.2-1.5-0.6-2.6-1.2-3.6c-0.5-1-1.1-1.9-1.8-2.4
		c-0.8-0.5-1.6-0.8-2.6-0.8c-1,0-1.8,0.3-2.6,0.8c-0.8,0.6-1.4,1.3-1.8,2.4c-0.5,1-0.9,2.3-1.1,3.6c-0.2,1.5-0.3,2.9-0.3,4.6
		c0,1.7,0.1,3.1,0.3,4.6c0.2,1.5,0.6,2.7,1.1,3.6c0.5,1,1.1,1.9,1.8,2.5s1.6,0.9,2.6,0.9c1,0,1.8-0.3,2.6-0.9
		c0.8-0.6,1.4-1.5,1.8-2.5c0.5-1,0.9-2.3,1.2-3.6C386.3,190.9,386.5,189.5,386.5,187.8z"/>
	<path class="st10" d="M417.3,178.1c-0.6-0.7-1.4-1.3-2.4-1.8c-0.9-0.4-1.8-0.6-2.8-0.6c-1,0-1.9,0.3-2.7,0.9
		c-0.8,0.6-1.2,1.6-1.2,3c0,1.1,0.4,2.1,1.2,2.7c0.9,0.6,2.1,1.3,3.6,2.2c0.9,0.4,1.8,0.9,2.8,1.6c1,0.6,1.9,1.3,2.7,2.2
		c0.9,0.8,1.5,1.9,2.1,3.1c0.5,1.1,0.9,2.6,0.9,4.2c0,2.1-0.3,3.8-1,5.4s-1.6,2.8-2.7,3.8c-1.2,1-2.5,1.8-3.9,2.3
		c-1.5,0.5-3,0.7-4.6,0.7c-2.4,0-4.5-0.4-6.5-1.2c-1.9-0.8-3.5-1.9-4.6-3l4.5-6.4c0.9,0.8,1.8,1.6,2.9,2.1c1.1,0.5,2.3,0.7,3.4,0.7
		c1.1,0,1.9-0.3,2.7-1c0.8-0.7,1.1-1.7,1.1-2.8c0-1.2-0.4-2.2-1.3-3c-0.9-0.7-2.2-1.5-3.9-2.3c-1.1-0.5-2.1-1-3-1.7
		c-1-0.6-1.7-1.3-2.5-2.2c-0.8-0.8-1.3-1.9-1.7-3c-0.4-1.1-0.6-2.5-0.6-4c0-2.1,0.3-3.9,1.1-5.4c0.8-1.6,1.6-2.7,2.8-3.7
		c1.2-0.9,2.5-1.7,3.9-2.2c1.4-0.4,2.8-0.7,4.3-0.7c2.2,0,4.1,0.3,5.7,1c1.7,0.6,3.1,1.6,4.3,2.8L417.3,178.1z"/>
</g>
</svg>
