<?xml version="1.0" encoding="utf-8"?>
<!-- Generator: Adobe Illustrator 27.0.0, SVG Export Plug-In . SVG Version: 6.00 Build 0)  -->
<svg version="1.1" id="Capa_1" xmlns="http://www.w3.org/2000/svg" xmlns:xlink="http://www.w3.org/1999/xlink" x="0px" y="0px"
	 viewBox="0 0 400 400" style="enable-background:new 0 0 400 400;" xml:space="preserve">
<style type="text/css">
	.st0{fill:url(#SVGID_1_);}
	.st1{fill:#BFD6F7;}
	.st2{fill:#DCE7F7;}
	.st3{fill:url(#SVGID_00000091003500167739369160000001661875980696941738_);}
	.st4{fill:url(#SVGID_00000086674308942521057920000001674804198250769555_);}
	.st5{fill:#FC6559;}
	.st6{fill:#999999;}
</style>
<linearGradient id="SVGID_1_" gradientUnits="userSpaceOnUse" x1="273.1" y1="-137.7102" x2="392.8" y2="-137.7102" gradientTransform="matrix(1 0 0 -1 0 191.8898)">
	<stop  offset="0" style="stop-color:#00A09C"/>
	<stop  offset="0.3381" style="stop-color:#10B8B2"/>
	<stop  offset="0.7448" style="stop-color:#1FCFC7"/>
	<stop  offset="1" style="stop-color:#25D8CF"/>
</linearGradient>
<polygon class="st0" points="346.2,396.1 392.8,263.1 273.1,263.1 "/>
<rect x="93.6" y="63.7" class="st1" width="232.7" height="305.8"/>
<rect x="67.1" y="37.1" class="st2" width="232.7" height="279.2"/>
<linearGradient id="SVGID_00000111878797436184457620000007331211453558796445_" gradientUnits="userSpaceOnUse" x1="7.2" y1="329.6" x2="346.2" y2="329.6">
	<stop  offset="0" style="stop-color:#00A09C"/>
	<stop  offset="0.3381" style="stop-color:#10B8B2"/>
	<stop  offset="0.7448" style="stop-color:#1FCFC7"/>
	<stop  offset="1" style="stop-color:#25D8CF"/>
</linearGradient>
<polygon style="fill:url(#SVGID_00000111878797436184457620000007331211453558796445_);" points="346.2,396.1 273.1,263.1 
	7.2,263.1 80.3,396.1 "/>
<linearGradient id="SVGID_00000067214272020478542620000018048912782174158235_" gradientUnits="userSpaceOnUse" x1="87" y1="43.85" x2="140.2" y2="43.85">
	<stop  offset="0" style="stop-color:#00A09C"/>
	<stop  offset="0.3381" style="stop-color:#10B8B2"/>
	<stop  offset="0.7448" style="stop-color:#1FCFC7"/>
	<stop  offset="1" style="stop-color:#25D8CF"/>
</linearGradient>
<path style="fill:url(#SVGID_00000067214272020478542620000018048912782174158235_);" d="M120.2,83.7c-11,0-19.9-8.9-19.9-19.9v-6.7
	h13.3v6.7c0,3.7,3,6.7,6.7,6.7s6.7-3,6.7-6.7V30.5c0-7.4-5.9-13.3-13.3-13.3c-7.3,0-13.3,6-13.3,13.3v6.7H87v-6.6
	C87,15.9,98.9,4,113.6,4s26.6,11.9,26.6,26.6v33.2C140.2,74.7,131.2,83.7,120.2,83.7z"/>
<polygon class="st5" points="226.6,97 200,97 200,70.4 173.4,70.4 173.4,97 146.8,97 146.8,123.6 173.4,123.6 173.4,150.1 
	200,150.1 200,123.6 226.6,123.6 "/>
<g>
	<rect x="106.9" y="170.1" class="st6" width="13.3" height="13.3"/>
	<rect x="133.5" y="170.1" class="st6" width="139.6" height="13.3"/>
	<rect x="93.6" y="196.7" class="st6" width="179.5" height="13.3"/>
	<rect x="93.6" y="223.3" class="st6" width="152.9" height="13.3"/>
	<rect x="265.4" y="63.7" class="st6" width="13.7" height="13.3"/>
	<rect x="266.5" y="90.3" class="st6" width="13.3" height="13.3"/>
</g>
</svg>
