<?xml version="1.0" encoding="utf-8"?>
<!-- Generator: Adobe Illustrator 27.0.0, SVG Export Plug-In . SVG Version: 6.00 Build 0)  -->
<svg version="1.1" id="Layer_3" xmlns="http://www.w3.org/2000/svg" xmlns:xlink="http://www.w3.org/1999/xlink" x="0px" y="0px"
	 viewBox="0 0 512 512" style="enable-background:new 0 0 512 512;" xml:space="preserve">
<style type="text/css">
	.st0{fill:url(#SVGID_1_);}
	.st1{fill:#2AD9DD;}
	.st2{fill:url(#SVGID_00000086651485072964161070000010862576644257416369_);}
	.st3{fill:#9CE2E0;}
	.st4{fill:#317ECE;}
	.st5{fill:url(#SVGID_00000083793034270130511670000015354610712788918460_);}
	.st6{fill:url(#SVGID_00000080890684231292457220000008645029308027927692_);}
	.st7{fill:url(#SVGID_00000088849470382717835030000013264823579862929828_);}
</style>
<g>
	<linearGradient id="SVGID_1_" gradientUnits="userSpaceOnUse" x1="59.6" y1="250.55" x2="232" y2="250.55">
		<stop  offset="0" style="stop-color:#B755E5"/>
		<stop  offset="4.796749e-02" style="stop-color:#AC5FE3"/>
		<stop  offset="0.275" style="stop-color:#7C8ADC"/>
		<stop  offset="0.4909" style="stop-color:#56ACD6"/>
		<stop  offset="0.6898" style="stop-color:#3BC4D2"/>
		<stop  offset="0.8656" style="stop-color:#2BD3D0"/>
		<stop  offset="1" style="stop-color:#25D8CF"/>
	</linearGradient>
	<path class="st0" d="M232,415.4c-95.1,0-172.4-77.3-172.4-172.4c0-67.7,39.9-129.5,101.7-157.3l29.2,64.8
		c-36.3,16.4-59.8,52.7-59.8,92.5c0,55.9,45.5,101.3,101.3,101.3V415.4L232,415.4z"/>
</g>
<path class="st1" d="M357.7,339.4H222.4v54.4h159.1c8.4,0,15.2-6.8,15.2-15.2C396.8,356.9,379.3,339.4,357.7,339.4L357.7,339.4z"/>
<linearGradient id="SVGID_00000014604765884562919380000001070814835359592122_" gradientUnits="userSpaceOnUse" x1="82.7" y1="47.3" x2="170" y2="47.3">
	<stop  offset="0" style="stop-color:#B755E5"/>
	<stop  offset="4.796749e-02" style="stop-color:#AC5FE3"/>
	<stop  offset="0.275" style="stop-color:#7C8ADC"/>
	<stop  offset="0.4909" style="stop-color:#56ACD6"/>
	<stop  offset="0.6898" style="stop-color:#3BC4D2"/>
	<stop  offset="0.8656" style="stop-color:#2BD3D0"/>
	<stop  offset="1" style="stop-color:#25D8CF"/>
</linearGradient>
<path style="fill:url(#SVGID_00000014604765884562919380000001070814835359592122_);" d="M137.8,9.6c-8-8-21-8-29.1,0l-20,20.1
	c-8,8-8,21,0,29.1L120.8,91L170,41.8L137.8,9.6z"/>
<path class="st1" d="M232,415.4v-71c-29.8,0-56.6-12.9-75.2-33.4c-8.7,6.2-16.3,14.1-22.3,23.5l-21.4,33.4
	C144.1,397.3,186,415.4,232,415.4L232,415.4z"/>
<path class="st3" d="M291.4,380.4c0-14.9-3.8-28.8-10.5-41h-58.5v54.4h69V380.4z"/>
<path class="st1" d="M206.3,325.6c-18.7,0-36,9.5-46.1,25.2l-54.9,85.6l77.9,35.6l77.9-35.6v-56.1
	C261,350.2,236.5,325.6,206.3,325.6L206.3,325.6z"/>
<circle class="st4" cx="203.6" cy="382.1" r="18.8"/>
<path class="st1" d="M88.1,148.1l52,52c10.1-21.6,27.7-39.5,50.3-49.6l-29.2-64.8C130.9,99.4,105.8,121.3,88.1,148.1z"/>
<path class="st1" d="M204.5,29.4c-12.9-12.9-33.9-12.9-46.8,0l-49.2,49.2c-12.9,12.9-12.9,33.9,0,46.8l121.9,121.9l96-96L204.5,29.4
	z"/>
<linearGradient id="SVGID_00000032618413301371210650000002468726379926890908_" gradientUnits="userSpaceOnUse" x1="98.825" y1="133.5125" x2="256.7" y2="133.5125">
	<stop  offset="0" style="stop-color:#B755E5"/>
	<stop  offset="4.796749e-02" style="stop-color:#AC5FE3"/>
	<stop  offset="0.275" style="stop-color:#7C8ADC"/>
	<stop  offset="0.4909" style="stop-color:#56ACD6"/>
	<stop  offset="0.6898" style="stop-color:#3BC4D2"/>
	<stop  offset="0.8656" style="stop-color:#2BD3D0"/>
	<stop  offset="1" style="stop-color:#25D8CF"/>
</linearGradient>
<path style="fill:url(#SVGID_00000032618413301371210650000002468726379926890908_);" d="M180.2,104.3c0-26.8,9.4-51.8,25.8-73.4
	l-1.5-1.5c-12.9-12.9-33.9-12.9-46.8,0l-49.2,49.2c-12.9,12.9-12.9,33.9,0,46.8l121.9,121.9l26.3-26.3
	C210.2,194.6,180.2,152.1,180.2,104.3z"/>
<linearGradient id="SVGID_00000025408970331924172390000016501034845078348434_" gradientUnits="userSpaceOnUse" x1="202.25" y1="527.1898" x2="354.475" y2="527.1898" gradientTransform="matrix(1 0 0 1 0 -327.8898)">
	<stop  offset="0" style="stop-color:#B755E5"/>
	<stop  offset="4.796749e-02" style="stop-color:#AC5FE3"/>
	<stop  offset="0.275" style="stop-color:#7C8ADC"/>
	<stop  offset="0.4909" style="stop-color:#56ACD6"/>
	<stop  offset="0.6898" style="stop-color:#3BC4D2"/>
	<stop  offset="0.8656" style="stop-color:#2BD3D0"/>
	<stop  offset="1" style="stop-color:#25D8CF"/>
</linearGradient>
<path style="fill:url(#SVGID_00000025408970331924172390000016501034845078348434_);" d="M349.3,149l-20.6-20.6c-7-7-18.2-7-25.2,0
	l-96,96c-7,7-7,18.2,0,25.2l20.6,20.6c7,7,18.2,7,25.2,0l96-96C356.2,167.2,356.2,156,349.3,149L349.3,149z"/>
<linearGradient id="SVGID_00000098916010063879092370000014648537358312514704_" gradientUnits="userSpaceOnUse" x1="67.2" y1="472.1" x2="454.8" y2="472.1">
	<stop  offset="0" style="stop-color:#B755E5"/>
	<stop  offset="4.796749e-02" style="stop-color:#AC5FE3"/>
	<stop  offset="0.275" style="stop-color:#7C8ADC"/>
	<stop  offset="0.4909" style="stop-color:#56ACD6"/>
	<stop  offset="0.6898" style="stop-color:#3BC4D2"/>
	<stop  offset="0.8656" style="stop-color:#2BD3D0"/>
	<stop  offset="1" style="stop-color:#25D8CF"/>
</linearGradient>
<path style="fill:url(#SVGID_00000098916010063879092370000014648537358312514704_);" d="M406.3,436.5h-301c-21,0-38.1,17-38.1,38.1
	v16.8c0,9,7.3,16.3,16.3,16.3h348.6c12.5,0,22.7-10.2,22.7-22.7C454.8,458.2,433.1,436.5,406.3,436.5L406.3,436.5z"/>
</svg>
