<?xml version="1.0" encoding="utf-8"?>
<!-- Generator: Adobe Illustrator 27.0.0, SVG Export Plug-In . SVG Version: 6.00 Build 0)  -->
<svg version="1.1" id="Capa_1" xmlns="http://www.w3.org/2000/svg" xmlns:xlink="http://www.w3.org/1999/xlink" x="0px" y="0px"
	 viewBox="0 0 512 512" style="enable-background:new 0 0 512 512;" xml:space="preserve">
<style type="text/css">
	.st0{fill:url(#SVGID_1_);}
	.st1{fill:#2AD9DD;}
	.st2{fill:url(#SVGID_00000173120347273727804790000017741643591133825707_);}
	.st3{fill:#9CE2E0;}
	.st4{fill:#317ECE;}
	.st5{fill:url(#SVGID_00000137841908081005324280000008589842446767557000_);}
	.st6{fill:url(#SVGID_00000161601423237826949320000003005494829470300040_);}
	.st7{fill:url(#SVGID_00000021827279935109786590000005100879426840163971_);}
</style>
<g>
	<g>
		
			<linearGradient id="SVGID_1_" gradientUnits="userSpaceOnUse" x1="77.4543" y1="260.622" x2="237.4216" y2="260.622" gradientTransform="matrix(1 0 0 -1 0 511.8898)">
			<stop  offset="0" style="stop-color:#B755E5"/>
			<stop  offset="4.796749e-02" style="stop-color:#AC5FE3"/>
			<stop  offset="0.275" style="stop-color:#7C8ADC"/>
			<stop  offset="0.4909" style="stop-color:#56ACD6"/>
			<stop  offset="0.6898" style="stop-color:#3BC4D2"/>
			<stop  offset="0.8656" style="stop-color:#2BD3D0"/>
			<stop  offset="1" style="stop-color:#25D8CF"/>
		</linearGradient>
		<path class="st0" d="M237.4,404.2c-88.2,0-160-71.7-160-160c0-62.8,37-120.2,94.4-146l27.1,60.1c-33.7,15.2-55.5,48.9-55.5,85.8
			c0,51.9,42.2,94,94,94V404.2L237.4,404.2z"/>
	</g>
	<path class="st1" d="M354.1,333.7H228.5v50.5h147.6c7.8,0,14.1-6.3,14.1-14.1C390.3,349.9,374.1,333.7,354.1,333.7L354.1,333.7z"/>
	
		<linearGradient id="SVGID_00000167363968460793641240000000126084779732451766_" gradientUnits="userSpaceOnUse" x1="98.8885" y1="449.2146" x2="179.8928" y2="449.2146" gradientTransform="matrix(1 0 0 -1 0 511.8898)">
		<stop  offset="0" style="stop-color:#B755E5"/>
		<stop  offset="4.796749e-02" style="stop-color:#AC5FE3"/>
		<stop  offset="0.275" style="stop-color:#7C8ADC"/>
		<stop  offset="0.4909" style="stop-color:#56ACD6"/>
		<stop  offset="0.6898" style="stop-color:#3BC4D2"/>
		<stop  offset="0.8656" style="stop-color:#2BD3D0"/>
		<stop  offset="1" style="stop-color:#25D8CF"/>
	</linearGradient>
	<path style="fill:url(#SVGID_00000167363968460793641240000000126084779732451766_);" d="M150,27.7c-7.4-7.4-19.5-7.4-27,0
		l-18.6,18.7c-7.4,7.4-7.4,19.5,0,27l29.8,29.9l45.7-45.7L150,27.7z"/>
	<path class="st1" d="M237.4,404.2v-65.9c-27.7,0-52.5-12-69.8-31c-8.1,5.8-15.1,13.1-20.7,21.8l-19.9,31
		C155.9,387.4,194.7,404.2,237.4,404.2L237.4,404.2z"/>
	<path class="st3" d="M292.5,371.8c0-13.8-3.5-26.7-9.7-38h-54.3v50.5h64V371.8z"/>
	<path class="st1" d="M213.6,320.9c-17.4,0-33.4,8.8-42.8,23.4l-50.9,79.4l72.3,33l72.3-33v-52.1
		C264.3,343.7,241.6,320.9,213.6,320.9L213.6,320.9z"/>
	<circle class="st4" cx="211.1" cy="373.3" r="17.4"/>
	<path class="st1" d="M103.9,156.2l48.3,48.2c9.4-20,25.7-36.7,46.7-46l-27.1-60.1C143.6,111,120.3,131.3,103.9,156.2z"/>
	<path class="st1" d="M211.9,46.1c-12-12-31.5-12-43.4,0l-45.7,45.7c-12,12-12,31.5,0,43.4l113.1,113.1l89.1-89.1L211.9,46.1z"/>
	
		<linearGradient id="SVGID_00000011015052154241521340000001689151878659155876_" gradientUnits="userSpaceOnUse" x1="113.8506" y1="369.2193" x2="260.3404" y2="369.2193" gradientTransform="matrix(1 0 0 -1 0 511.8898)">
		<stop  offset="0" style="stop-color:#B755E5"/>
		<stop  offset="4.796749e-02" style="stop-color:#AC5FE3"/>
		<stop  offset="0.275" style="stop-color:#7C8ADC"/>
		<stop  offset="0.4909" style="stop-color:#56ACD6"/>
		<stop  offset="0.6898" style="stop-color:#3BC4D2"/>
		<stop  offset="0.8656" style="stop-color:#2BD3D0"/>
		<stop  offset="1" style="stop-color:#25D8CF"/>
	</linearGradient>
	<path style="fill:url(#SVGID_00000011015052154241521340000001689151878659155876_);" d="M189.4,115.6c0-24.9,8.7-48.1,23.9-68.1
		l-1.4-1.4c-12-12-31.5-12-43.4,0l-45.7,45.7c-12,12-12,31.5,0,43.4l113.1,113.1l24.4-24.4C217.2,199.4,189.4,159.9,189.4,115.6z"/>
	
		<linearGradient id="SVGID_00000105420813551859849030000009412738758720629906_" gradientUnits="userSpaceOnUse" x1="209.817" y1="-19.7137" x2="351.0643" y2="-19.7137" gradientTransform="matrix(1 0 0 -1 0 184)">
		<stop  offset="0" style="stop-color:#B755E5"/>
		<stop  offset="4.796749e-02" style="stop-color:#AC5FE3"/>
		<stop  offset="0.275" style="stop-color:#7C8ADC"/>
		<stop  offset="0.4909" style="stop-color:#56ACD6"/>
		<stop  offset="0.6898" style="stop-color:#3BC4D2"/>
		<stop  offset="0.8656" style="stop-color:#2BD3D0"/>
		<stop  offset="1" style="stop-color:#25D8CF"/>
	</linearGradient>
	<path style="fill:url(#SVGID_00000105420813551859849030000009412738758720629906_);" d="M346.3,157l-19.1-19.1
		c-6.5-6.5-16.9-6.5-23.4,0L214.7,227c-6.5,6.5-6.5,16.9,0,23.4l19.1,19.1c6.5,6.5,16.9,6.5,23.4,0l89.1-89.1
		C352.7,173.9,352.7,163.5,346.3,157L346.3,157z"/>
	
		<linearGradient id="SVGID_00000083089570694075951120000011039922475893870494_" gradientUnits="userSpaceOnUse" x1="84.5062" y1="55.0492" x2="444.1543" y2="55.0492" gradientTransform="matrix(1 0 0 -1 0 511.8898)">
		<stop  offset="0" style="stop-color:#B755E5"/>
		<stop  offset="4.796749e-02" style="stop-color:#AC5FE3"/>
		<stop  offset="0.275" style="stop-color:#7C8ADC"/>
		<stop  offset="0.4909" style="stop-color:#56ACD6"/>
		<stop  offset="0.6898" style="stop-color:#3BC4D2"/>
		<stop  offset="0.8656" style="stop-color:#2BD3D0"/>
		<stop  offset="1" style="stop-color:#25D8CF"/>
	</linearGradient>
	<path style="fill:url(#SVGID_00000083089570694075951120000011039922475893870494_);" d="M399.2,423.8H119.9
		c-19.5,0-35.4,15.8-35.4,35.4v15.6c0,8.4,6.8,15.1,15.1,15.1h323.5c11.6,0,21.1-9.5,21.1-21.1C444.2,443.9,424,423.8,399.2,423.8
		L399.2,423.8z"/>
</g>
</svg>
