<?xml version="1.0" encoding="utf-8"?>
<!-- Generator: Adobe Illustrator 27.0.0, SVG Export Plug-In . SVG Version: 6.00 Build 0)  -->
<svg version="1.1" id="Capa_1" xmlns="http://www.w3.org/2000/svg" xmlns:xlink="http://www.w3.org/1999/xlink" x="0px" y="0px"
	 viewBox="0 0 512 512" style="enable-background:new 0 0 512 512;" xml:space="preserve">
<style type="text/css">
	.st0{fill:url(#SVGID_1_);}
	.st1{fill:#EAF5FC;}
	.st2{opacity:0.41;fill:#D3DDFB;enable-background:new    ;}
	.st3{fill:#CCD2DB;}
	.st4{fill:#E4EAF8;}
	.st5{fill:#FC6559;}
	.st6{fill:#999999;}
</style>
<linearGradient id="SVGID_1_" gradientUnits="userSpaceOnUse" x1="75.2" y1="284.45" x2="436.9" y2="284.45">
	<stop  offset="0" style="stop-color:#00A09C"/>
	<stop  offset="0.3381" style="stop-color:#10B8B2"/>
	<stop  offset="0.7448" style="stop-color:#1FCFC7"/>
	<stop  offset="1" style="stop-color:#25D8CF"/>
</linearGradient>
<path class="st0" d="M408.1,57c-15.6,0-68.5,0-84.1,0v0.1C161,57,207.4,57,104,57c-15.9,0-28.8,12.9-28.8,28.8v397.3
	c0,15.9,12.9,28.8,28.8,28.8h304.1c15.9,0,28.8-12.9,28.8-28.8V85.8C436.8,69.9,423.9,57,408.1,57z"/>
<path class="st1" d="M402.3,89c-6.9,0-289.3,0-292.6,0c-1.4,0-2.6,1.1-2.6,2.6v385.8c0,1.4,1.1,2.6,2.6,2.6h292.6
	c1.4,0,2.6-1.1,2.6-2.6V91.5C404.9,90.1,403.7,89,402.3,89z"/>
<path class="st2" d="M127.4,477.4V91.5c0-1.4,1.2-2.6,2.6-2.6c-12.3,0-19.8,0-20.3,0c-1.4,0-2.6,1.1-2.6,2.6v385.8
	c0,1.4,1.1,2.6,2.6,2.6H130C128.6,479.9,127.4,478.8,127.4,477.4z"/>
<path class="st3" d="M282.4,60.7c-4.2,0-7.6-3.4-7.6-7.6V33.9c0-10.3-8.4-18.8-18.8-18.8c-10.3,0-18.8,8.4-18.8,18.8v19.2
	c0,4.2-3.4,7.6-7.6,7.6c-4.2,0-7.6-3.4-7.6-7.6V33.9c0-18.7,15.2-34,34-34s34,15.2,34,34v19.2C290,57.3,286.6,60.7,282.4,60.7z"/>
<path class="st4" d="M315.9,49H196.1c-4.4,0-8.1,3.6-8.1,8.1v36.6c0,4.4,3.6,8.1,8.1,8.1h119.7c4.4,0,8.1-3.6,8.1-8.1V57.1
	C323.9,52.7,320.3,49,315.9,49z"/>
<path class="st3" d="M315.9,81.5H196.1c-4.4,0-8.1-3.6-8.1-8.1v20.3c0,4.4,3.6,8.1,8.1,8.1h119.7c4.4,0,8.1-3.6,8.1-8.1V73.4
	C323.9,77.9,320.3,81.5,315.9,81.5z"/>
<g id="g2315_00000157991581462491720310000002388622277916738738_" transform="translate(306.8206,307.691)">
	<path id="path2317_00000008830441203374949050000011417870273493727659_" class="st5" d="M2.5-120H-30v-32.5h-41.6v32.5h-32.5v41.6
		h32.5v32.5H-30v-32.5H2.5V-120z"/>
</g>
<g id="g2319_00000070104336846771507130000002707504475969836972_" transform="translate(337.2794,177.0099)">
	<path id="path2321_00000123403211713087032440000002463413371710043051_" class="st6" d="M3.9,147.6h-174.2
		c-7.9-6.9-3.1-15.7,3.8-15.7H7.7C15.6,138.9,10.8,147.6,3.9,147.6"/>
</g>
<g id="g2323_00000107548454490274786520000015826656233108451976_" transform="translate(337.2794,138.1371)">
	<path id="path2325_00000131360276348297828040000005996712974722227599_" class="st6" d="M3.9,227.3h-174.2
		c-7.9-6.9-3.1-15.7,3.8-15.7H7.7C15.6,218.5,10.8,227.3,3.9,227.3"/>
</g>
<g id="g2327_00000142872817511510472260000015136263183988052652_" transform="translate(337.2794,99.2643)">
	<path id="path2329_00000085250718284548768790000005400467913356704904_" class="st6" d="M3.9,306.9h-174.2
		c-7.9-6.9-3.1-15.7,3.8-15.7H7.7C15.6,298.1,10.8,306.9,3.9,306.9"/>
</g>
</svg>
