<?xml version="1.0" encoding="utf-8"?>
<!-- Generator: Adobe Illustrator 27.0.0, SVG Export Plug-In . SVG Version: 6.00 Build 0)  -->
<svg version="1.1" id="Layer_1" xmlns="http://www.w3.org/2000/svg" xmlns:xlink="http://www.w3.org/1999/xlink" x="0px" y="0px"
	 viewBox="0 0 512 476" style="enable-background:new 0 0 512 476;" xml:space="preserve">
<style type="text/css">
	.st0{fill:url(#SVGID_1_);}
	.st1{fill:url(#SVGID_00000047038655051691570540000017584010359077920899_);}
	.st2{fill:url(#SVGID_00000076600975541949952400000000422936778388309137_);}
	.st3{fill:url(#SVGID_00000123413454518949314270000017452988655183438007_);}
	.st4{fill:url(#SVGID_00000142147607692701942260000013200888219503093144_);}
	.st5{fill:#FFFFFF;}
</style>
<linearGradient id="SVGID_1_" gradientUnits="userSpaceOnUse" x1="488.5949" y1="366.7379" x2="390.0272" y2="309.8297" gradientTransform="matrix(1 0 0 1 0 -131.9999)">
	<stop  offset="0" style="stop-color:#00A09C"/>
	<stop  offset="0.3381" style="stop-color:#10B8B2"/>
	<stop  offset="0.7448" style="stop-color:#1FCFC7"/>
	<stop  offset="1" style="stop-color:#25D8CF"/>
</linearGradient>
<path class="st0" d="M493,213.2c-0.6,2.7-1.2,5.4-1.8,8.1c-5.5,23.8-18,43-38.4,56.3c-6.2,4.1-13.7,6.8-21,8.4
	c-11.7,2.6-20.6-2.1-26.7-12.4c-5.6-9.4-7.9-20-9.1-30.6c-2.3-20.1-3.6-40.3-0.3-60.4c2.6-16,7.6-31.2,18-43.9
	c4.1-4.9,9.2-9.5,14.7-12.7c12.8-7.5,27.6-4.8,39.3,6.5c12.7,12.2,18.8,27.9,22.5,44.7c1.2,5.4,1.9,11,2.8,16.5
	C493,200.1,493,206.6,493,213.2z"/>
<linearGradient id="SVGID_00000014602066098425152220000000607112286137916070_" gradientUnits="userSpaceOnUse" x1="124.1445" y1="367.127" x2="13.8252" y2="303.4341" gradientTransform="matrix(1 0 0 1 0 -131.9999)">
	<stop  offset="0" style="stop-color:#00A09C"/>
	<stop  offset="0.3381" style="stop-color:#10B8B2"/>
	<stop  offset="0.7448" style="stop-color:#1FCFC7"/>
	<stop  offset="1" style="stop-color:#25D8CF"/>
</linearGradient>
<path style="fill:url(#SVGID_00000014602066098425152220000000607112286137916070_);" d="M14,193.6c1.6-8.2,2.8-16.5,4.9-24.6
	c2.8-10.9,7.5-21,14.5-30c0.3-0.4,0.6-0.7,0.9-1.1c17.2-21.3,41.5-21.4,58.6-0.1c11.5,14.3,17.1,31,19,48.9
	c2.7,24.7,1.7,49.4-4.4,73.6c-0.9,3.6-2.3,7.1-4,10.4c-6.7,13.6-17.8,18.6-32.4,14.7c-14.7-3.9-26-13.1-35.6-24.5
	c-11.2-13.2-18.3-28.4-20.7-45.7c-0.1-0.7-0.5-1.4-0.8-2.1C14,206.6,14,200.1,14,193.6z"/>
<linearGradient id="SVGID_00000182508269463683912960000007387165195300529307_" gradientUnits="userSpaceOnUse" x1="370.7987" y1="535.8594" x2="144.7836" y2="405.3696" gradientTransform="matrix(1 0 0 1 0 -131.9999)">
	<stop  offset="0" style="stop-color:#00A09C"/>
	<stop  offset="0.3381" style="stop-color:#10B8B2"/>
	<stop  offset="0.7448" style="stop-color:#1FCFC7"/>
	<stop  offset="1" style="stop-color:#25D8CF"/>
</linearGradient>
<path style="fill:url(#SVGID_00000182508269463683912960000007387165195300529307_);" d="M259.6,204.3c21.6,0.2,45.4,10.7,66.1,28
	c30.3,25.2,51.5,56.7,57.9,95.8c6.7,40.9-3.7,77-38.9,102.8c-11.8,8.7-25.4,13.9-39.7,16.6c-2.4,0.5-5.9-0.2-7.6-1.7
	c-5-4.3-9.6-9.3-14.1-14.2c-7.1-7.9-13.6-16.2-20.9-23.9c-7.2-7.5-10.7-7.6-17.9-0.1c-7.3,7.6-13.8,16-20.9,23.9
	c-4.5,5-9,10-14,14.3c-1.9,1.6-5.5,2.2-8.1,1.7c-47.8-9.7-78.5-46.5-80.1-95.1c-1.1-33.8,11.4-62.9,30.8-89.5
	c17.1-23.5,38.5-41.8,66.1-52.2C229.8,206.4,241.5,204.3,259.6,204.3z M146.3,340c-0.4,8.2,2.5,12.1,7.5,12.5c5.3,0.3,8.6-3.2,9-9.5
	c0.1-1.2,0.1-2.5,0.2-3.7c5.7-44.8,51.1-96,90.9-93.9c4.9,0.3,8.2-4.2,7.9-8.6c-0.4-4.5-4-8-9-7.5c-7.4,0.7-14.9,1.5-22,3.6
	c-23.7,7.2-41.6,22.7-56.4,41.9C159,294.6,148.4,316.7,146.3,340z"/>
<linearGradient id="SVGID_00000009586605362178681200000003794159005524413345_" gradientUnits="userSpaceOnUse" x1="375.6577" y1="269.7199" x2="263.3749" y2="204.8934" gradientTransform="matrix(1 0 0 1 0 -131.9999)">
	<stop  offset="0" style="stop-color:#00A09C"/>
	<stop  offset="0.3381" style="stop-color:#10B8B2"/>
	<stop  offset="0.7448" style="stop-color:#1FCFC7"/>
	<stop  offset="1" style="stop-color:#25D8CF"/>
</linearGradient>
<path style="fill:url(#SVGID_00000009586605362178681200000003794159005524413345_);" d="M377.4,102.6c-0.2,24.9-5.4,45.7-19.1,63.8
	c-6.9,9.1-15.5,16.3-26.7,19.5c-16.7,4.9-31.1,0-43.4-11.4c-14.5-13.5-21.7-30.9-24.8-50c-3.8-23.1-1.3-45.5,9-66.8
	c4.5-9.3,10.6-17.6,18.8-24.1c18.4-14.8,41.2-14.2,58.7,1.6c15.5,14,22.8,32.2,26.1,52.4C376.9,93.3,377.1,99.3,377.4,102.6z"/>
<linearGradient id="SVGID_00000172416025276202307070000004118053683529661068_" gradientUnits="userSpaceOnUse" x1="243.3233" y1="269.6864" x2="131.2431" y2="204.977" gradientTransform="matrix(1 0 0 1 0 -131.9999)">
	<stop  offset="0" style="stop-color:#00A09C"/>
	<stop  offset="0.3381" style="stop-color:#10B8B2"/>
	<stop  offset="0.7448" style="stop-color:#1FCFC7"/>
	<stop  offset="1" style="stop-color:#25D8CF"/>
</linearGradient>
<path style="fill:url(#SVGID_00000172416025276202307070000004118053683529661068_);" d="M129.6,108.2c0.2-24.8,5.2-45.5,18.7-63.5
	c7.9-10.5,17.8-18.3,31-20.9c15.5-3,28.6,2.2,39.7,12.7c14.2,13.5,21.4,30.7,24.5,49.7c4,24.6,1.3,48.5-11.1,70.4
	c-3.9,6.9-9.1,13.5-15,18.9c-18,16.6-42.2,16.4-60.4,0c-15.5-14-22.9-32.2-26.1-52.3C130.1,117.3,129.9,111.4,129.6,108.2z"/>
<path class="st5" d="M146.3,340c2.1-23.3,12.7-45.4,28.1-65.3c14.8-19.2,32.7-34.7,56.4-41.9c7.1-2.1,14.6-2.9,22-3.6
	c5-0.5,8.6,3,9,7.5c0.4,4.4-2.9,8.9-7.9,8.6c-39.9-2.1-85.2,49.1-90.9,93.9c-0.2,1.2-0.2,2.5-0.2,3.7c-0.3,6.4-3.6,9.9-9,9.5
	C148.8,352.1,145.8,348.2,146.3,340z"/>
</svg>
