<?xml version="1.0" encoding="utf-8"?>
<!-- Generator: Adobe Illustrator 27.0.0, SVG Export Plug-In . SVG Version: 6.00 Build 0)  -->
<svg version="1.1" id="Capa_1" xmlns="http://www.w3.org/2000/svg" xmlns:xlink="http://www.w3.org/1999/xlink" x="0px" y="0px"
	 viewBox="0 0 200 200" style="enable-background:new 0 0 200 200;" xml:space="preserve">
<style type="text/css">
	.st0{fill:#DBDDDC;}
	.st1{fill:#DD8ACC;}
</style>
<rect x="-2" y="-4" class="st0" width="203.2" height="206"/>
<g>
	<path class="st1" d="M52.5,136.7c0.2-4.4,1.6-8.6,5.1-12c5-4.8,10-9.7,15.2-14.5c3.2-2.9,6.1-6.1,9.5-8.7c4-3.1,8.5-4.8,13.5-5.2
		c8.1-0.7,15.1,1.9,20.9,7.5c5.3,5.1,10.6,10.2,16,15.2c2.7,2.5,5.5,4.8,7.7,7.8c2.6,3.5,3.6,7.5,3.2,12c-0.5,4.6-2.2,8.5-5.3,11.8
		c-2.8,3-6.4,4.7-10.5,5.3c-3.9,0.6-7.5-0.6-11.1-1.5c-3.8-0.9-7.5-2-11.3-2.6c-3.9-0.6-7.8-0.7-11.7-0.3
		c-5.3,0.6-10.2,2.5-15.3,3.6c-4.8,1-9.5,1.6-14.3-0.5c-4.9-2.1-8.1-5.8-10.1-10.7C53,141.7,52.6,139.4,52.5,136.7z"/>
	<path class="st1" d="M94,66c-0.3,6.2-1.9,11.9-6.2,16.5c-2.5,2.7-5.7,4.3-9.3,4.3c-2.7,0-5.3-1.1-7.4-2.9c-4.6-4-6.8-9.2-7.6-15.1
		c-0.7-5.8,0.2-11.3,2.8-16.5c1.6-3.1,3.8-5.5,7-7.1c4.3-2.1,9.8-1.4,13.3,1.8c3.9,3.5,5.9,7.9,6.6,13C93.7,62,94.1,64,94,66z"/>
	<path class="st1" d="M102.3,64.8c0-4.8,1.2-9.9,4.2-14.4c5.6-8.3,16.1-8.5,21.9-0.3c2.8,3.9,3.8,8.4,4.3,13.1
		c0.4,4.1-0.1,8-1.5,11.8c-1.6,4.4-4.1,8.3-8.6,10.5c-4.7,2.3-8.5,1.6-12.6-1.6c-4.6-3.5-6.4-8.6-7.5-14
		C102.3,68.4,102.4,66.9,102.3,64.8z"/>
	<path class="st1" d="M136.3,96c0-6.7,1.6-12.3,5.3-17.2c1.9-2.5,4.2-4.6,7.3-5.5c4.4-1.3,8.8,0.5,11.2,4.6c1.5,2.5,2.2,5.1,2.5,8
		c0.7,6.4-0.9,12.3-4.1,17.7c-1.8,3-4.3,5.3-7.7,6.5c-4.3,1.5-8.7,0-11.4-3.8C137,103,136.1,99.3,136.3,96z"/>
	<path class="st1" d="M60.1,95c-0.2,3.6-0.5,7.2-2.4,10.4c-3.9,6.4-10.8,7.1-16.3,2.2c-4.2-3.8-6.1-8.7-7.2-14.1
		c-0.9-4.4-0.8-8.8,0.8-13.1c1.1-3,3-5.4,6-6.7c3.9-1.6,7.4-0.7,10.5,1.8c4.6,3.8,7.1,8.8,8,14.6C59.8,91.7,60.2,93.3,60.1,95z"/>
</g>
</svg>
