<?xml version="1.0" encoding="utf-8"?>
<!-- Generator: Adobe Illustrator 27.0.0, SVG Export Plug-In . SVG Version: 6.00 Build 0)  -->
<svg version="1.1" id="Capa_1" xmlns="http://www.w3.org/2000/svg" xmlns:xlink="http://www.w3.org/1999/xlink" x="0px" y="0px"
	 viewBox="0 0 400 400" style="enable-background:new 0 0 400 400;" xml:space="preserve">
<style type="text/css">
	.st0{fill:#2CBEBF;}
	.st1{fill:#60CACB;}
	.st2{fill:#F6CCAF;}
	.st3{fill:#FFDEC7;}
	.st4{fill:#374F68;}
	.st5{fill:#3DA5FF;}
	.st6{fill:#6AB7FF;}
	.st7{fill:#425B72;}
	.st8{fill:#D3DDFB;}
	.st9{fill:#EAF5FC;}
	.st10{fill:#FC6559;}
	.st11{fill:url(#SVGID_1_);}
	.st12{fill:url(#SVGID_00000121279984828755177430000004053834162377968778_);}
	.st13{fill:url(#SVGID_00000085962819966206662540000003738552171164652700_);}
	.st14{fill:#DCE7F7;}
	.st15{fill:#C8CFDB;}
	.st16{fill:url(#SVGID_00000049223212577271655440000013996086347844247199_);}
</style>
<path class="st0" d="M220-115.4c-2.5,1.9-4.4,4.6-5.4,7.5h-26.8v-1.8c0-15.6,19.6-22.4,29.3-10.8C218.4-119,219.4-117.3,220-115.4z"
	/>
<path class="st1" d="M220-115.4c-1.4,1.1-2.6,2.4-3.6,3.8H197c-2.9-0.2-5.1-2.7-4.9-5.5c0-0.5,0.1-0.9,0.3-1.4c0.3-1,0.8-2,1.3-2.9
	c0.5-1.3,1.6-2.4,2.9-2.9C206.3-129.7,218.1-123.4,220-115.4z"/>
<path class="st2" d="M211.8-137.4c0,5.5,0.4,7.4-1.3,9.8c-2.3,3.3-6.9,4.2-10.3,1.8c-0.4-0.2-0.7-0.5-1-0.8
	c-2.7-2.8-2.2-5.6-2.2-10.8c2.7,1.1,7.1,2.1,9.2,0c1.5-1.5,3.9-1.6,5.4-0.1C211.8-137.5,211.8-137.5,211.8-137.4L211.8-137.4z"/>
<path class="st3" d="M211.8-137.4c0,5.5,0.4,7.4-1.3,9.8c-2.9,2-6.9,1.7-9.4-0.8c-2.5-2.5-2.2-5.1-2.2-8.3c2.1,0.6,5.5,1.2,7.4-0.6
	c1.5-1.5,3.9-1.6,5.4-0.1C211.8-137.5,211.8-137.5,211.8-137.4L211.8-137.4z"/>
<path class="st4" d="M211.8-137.4c-1.5-1.5-3.9-1.6-5.4-0.1c0,0-0.1,0.1-0.1,0.1c-2.8,2.8-9.2,0-9.2,0c0-4.1,3.3-7.4,7.4-7.4
	S211.8-141.5,211.8-137.4z"/>
<path class="st5" d="M246.9-102.3v1.8h-33.3c-0.2-2.5,0.1-5,1-7.4c3.1-8.7,12.6-13.2,21.2-10.1C242.5-115.6,246.9-109.3,246.9-102.3
	z"/>
<path class="st6" d="M246.8-104.2c-32.7,0-21.6,0-24,0c-2.9-0.2-5.1-2.7-4.9-5.5c0-0.5,0.1-0.9,0.3-1.4c0.6-1.7,1.4-3.3,2.4-4.7
	c7.4-5.4,17.8-3.7,23.2,3.7C245.4-109.8,246.5-107,246.8-104.2L246.8-104.2z"/>
<path class="st2" d="M237.7-130c0,5.5,0.4,7.4-1.3,9.8c-2.3,3.3-6.9,4.2-10.3,1.8c-0.4-0.2-0.7-0.5-1-0.8c-2.7-2.8-2.2-5.7-2.2-10.8
	c2.7,1.1,7.1,2.1,9.2,0c1.5-1.5,3.9-1.6,5.4-0.1C237.6-130.1,237.6-130.1,237.7-130L237.7-130z"/>
<path class="st3" d="M237.7-130c0,5.5,0.4,7.4-1.3,9.8c-2.9,2-6.9,1.7-9.4-0.8c-2.5-2.5-2.2-5.1-2.2-8.3c2.1,0.6,5.5,1.2,7.4-0.6
	c1.5-1.5,3.9-1.6,5.4-0.1C237.6-130.1,237.6-130.1,237.7-130L237.7-130z"/>
<path class="st4" d="M237.7-130c-1.5-1.5-3.9-1.6-5.4-0.1c0,0-0.1,0.1-0.1,0.1c-2.8,2.8-9.2,0-9.2,0c0-4.1,3.3-7.4,7.4-7.4
	S237.7-134.1,237.7-130z"/>
<path class="st0" d="M272.8-109.7v1.8H246c-1.1-3-2.9-5.6-5.4-7.5C246.9-132.7,272.8-128.3,272.8-109.7z"/>
<path class="st1" d="M272.7-111.6c-32.7,0-21.6,0-24,0c-2.9-0.2-5.1-2.7-4.9-5.5c0-0.5,0.1-0.9,0.3-1.4c0.6-1.7,1.4-3.3,2.4-4.7
	c7.4-5.4,17.8-3.7,23.2,3.7C271.3-117.2,272.4-114.4,272.7-111.6L272.7-111.6z"/>
<path class="st2" d="M263.6-137.4c0,5.5,0.4,7.4-1.3,9.8c-2.3,3.3-6.9,4.2-10.3,1.8c-0.4-0.2-0.7-0.5-1-0.8
	c-2.7-2.8-2.2-5.6-2.2-10.8c2.7,1.1,7.1,2.1,9.2,0c1.5-1.5,3.9-1.6,5.4-0.1C263.5-137.5,263.5-137.5,263.6-137.4L263.6-137.4z"/>
<path class="st3" d="M263.6-137.4c0,5.5,0.4,7.4-1.3,9.8c-2.9,2-6.9,1.7-9.4-0.8c-2.5-2.5-2.2-5.1-2.2-8.3c2.1,0.6,5.5,1.2,7.4-0.6
	c1.5-1.5,3.9-1.6,5.4-0.1C263.5-137.5,263.5-137.5,263.6-137.4L263.6-137.4z"/>
<path class="st4" d="M263.6-137.4c-1.5-1.5-3.9-1.6-5.4-0.1c0,0-0.1,0.1-0.1,0.1c-2.8,2.8-9.2,0-9.2,0c0-4.1,3.3-7.4,7.4-7.4
	C260.2-144.8,263.6-141.5,263.6-137.4z"/>
<g>
	<path class="st7" d="M263.6-137.4c-1.5-1.5-3.9-1.6-5.4-0.1c0,0-0.1,0.1-0.1,0.1c-0.7,0.7-1.7,1.1-2.7,1.2
		c-1.6-0.2-3.2-0.6-4.7-1.2c0-3.8,2.8-6.9,6.5-7.4C260.8-144.4,263.6-141.2,263.6-137.4z"/>
	<path class="st7" d="M237.7-130c-1.5-1.5-3.9-1.6-5.4-0.1c-0.1,0-0.1,0.1-0.1,0.1c-0.7,0.7-1.7,1.1-2.7,1.2
		c-1.6-0.2-3.2-0.6-4.7-1.2c0-3.8,2.8-6.9,6.5-7.4C234.9-137,237.7-133.8,237.7-130z"/>
	<path class="st7" d="M211.8-137.4c-1.5-1.5-3.9-1.6-5.4-0.1c-0.1,0-0.1,0.1-0.1,0.1c-0.7,0.7-1.7,1.1-2.7,1.2
		c-1.6-0.2-3.2-0.6-4.7-1.2c0-3.8,2.8-6.9,6.5-7.4C209.1-144.4,211.9-141.2,211.8-137.4z"/>
</g>
<g>
	<path class="st8" d="M242.7-154.7c0,2.7-0.9,5.2-2.4,7.4c-7.1,9.4-22.1,4.4-22.1-7.4c0-3.9,1.8-7.5,4.9-9.8
		c5.4-4.1,13.1-3,17.2,2.4C241.8-160,242.7-157.4,242.7-154.7z"/>
	<path class="st9" d="M242.7-154.7c0,2.7-0.9,5.2-2.4,7.4c-5.4,4.1-13.1,3-17.2-2.4c-3.3-4.4-3.3-10.4,0-14.7
		c5.4-4.1,13.1-3,17.2,2.4C241.8-160,242.7-157.4,242.7-154.7z"/>
	<path class="st10" d="M236.6-157.2h-3.7v-3.7H228v3.7h-3.7v4.9h3.7v3.7h4.9v-3.7h3.7V-157.2z"/>
</g>
<g>
	<path class="st2" d="M212-134.7c0,5.5,0.4,7.4-1.3,9.8c-2.3,3.3-6.9,4.2-10.3,1.8c-0.4-0.2-0.7-0.5-1-0.8
		c-2.7-2.8-2.2-5.6-2.2-10.8c2.7,1.1,7.1,2.1,9.2,0c1.5-1.5,3.9-1.6,5.4-0.1C212-134.8,212-134.8,212-134.7L212-134.7z"/>
	<path class="st3" d="M212-134.7c0,5.5,0.4,7.4-1.3,9.8c-2.9,2-6.9,1.7-9.4-0.8c-2.5-2.5-2.2-5.1-2.2-8.3c2.1,0.6,5.5,1.2,7.4-0.6
		c1.5-1.5,3.9-1.6,5.4-0.1C212-134.8,212-134.8,212-134.7L212-134.7z"/>
	<path class="st4" d="M212-134.7c-1.5-1.5-3.9-1.6-5.4-0.1c0,0-0.1,0.1-0.1,0.1c-2.8,2.8-9.2,0-9.2,0c0-4.1,3.3-7.4,7.4-7.4
		S212-138.8,212-134.7z"/>
	
		<linearGradient id="SVGID_1_" gradientUnits="userSpaceOnUse" x1="220.033" y1="512.5274" x2="241.0153" y2="491.5451" gradientTransform="matrix(1 0 0 -1 0 399.8898)">
		<stop  offset="0" style="stop-color:#00A99D"/>
		<stop  offset="0.1894" style="stop-color:#0FBBB1"/>
		<stop  offset="0.4258" style="stop-color:#1BCBC2"/>
		<stop  offset="0.6836" style="stop-color:#23D5CC"/>
		<stop  offset="1" style="stop-color:#25D8CF"/>
	</linearGradient>
	<path class="st11" d="M247-101.5L247-101.5c0-0.1,0-0.2,0-0.3c0-0.2-0.1-0.4-0.1-0.6c-0.1-0.3-0.1-0.6-0.2-0.9c0-0.1,0-0.1,0-0.2
		c-0.5-2.1-1.4-4.1-2.7-5.9c-5.4-7.4-15.8-9.1-23.2-3.7c0,0-0.1,0.1-0.1,0.1c-2.6,1.9-4.7,4.6-5.8,7.8c-0.8,2.4-1.1,4.9-1,7.4h33.3
		v-1.8C247.1-100.2,247.1-100.9,247-101.5z"/>
	<path class="st2" d="M237.9-127.3c0,5.5,0.4,7.4-1.3,9.8c-2.3,3.3-6.9,4.2-10.3,1.8c-0.4-0.2-0.7-0.5-1-0.8
		c-2.7-2.8-2.2-5.7-2.2-10.8c2.7,1.1,7.1,2.1,9.2,0c1.5-1.5,3.9-1.6,5.4-0.1C237.8-127.4,237.9-127.4,237.9-127.3L237.9-127.3z"/>
	<path class="st3" d="M237.9-127.3c0,5.5,0.4,7.4-1.3,9.8c-2.9,2-6.9,1.7-9.4-0.8c-2.5-2.5-2.2-5.1-2.2-8.3c2.1,0.6,5.5,1.2,7.4-0.7
		c1.5-1.5,3.9-1.6,5.4-0.1C237.8-127.4,237.9-127.4,237.9-127.3L237.9-127.3z"/>
	<path class="st4" d="M237.9-127.3c-1.5-1.5-3.9-1.6-5.4-0.1c0,0-0.1,0.1-0.1,0.1c-2.8,2.8-9.2,0-9.2,0c0-4.1,3.3-7.4,7.4-7.4
		S237.9-131.4,237.9-127.3z"/>
	
		<linearGradient id="SVGID_00000064349357733068103010000002041269452447933577_" gradientUnits="userSpaceOnUse" x1="240.78" y1="514.3127" x2="273.02" y2="514.3127" gradientTransform="matrix(1 0 0 -1 0 399.8898)">
		<stop  offset="0" style="stop-color:#00ADEA"/>
		<stop  offset="1" style="stop-color:#0783E9"/>
	</linearGradient>
	<path style="fill:url(#SVGID_00000064349357733068103010000002041269452447933577_);" d="M265-121.2c0,0-0.1-0.1-0.1-0.1
		c-0.2-0.1-0.5-0.2-0.7-0.4c-4-2.2-8.8-2.6-13.2-1.1c-4.4,1.4-8.3,4.7-10.3,10.1c2.5,1.9,4.4,4.6,5.4,7.5H273v-1.8
		C273-113.7,269.6-118.6,265-121.2z"/>
	
		<linearGradient id="SVGID_00000137122199659266847620000018378266429986249639_" gradientUnits="userSpaceOnUse" x1="188.02" y1="514.2784" x2="220.26" y2="514.2784" gradientTransform="matrix(1 0 0 -1 0 399.8898)">
		<stop  offset="0" style="stop-color:#00ADEA"/>
		<stop  offset="1" style="stop-color:#0783E9"/>
	</linearGradient>
	<path style="fill:url(#SVGID_00000137122199659266847620000018378266429986249639_);" d="M218.2-110.8c0.1-0.1,0.1-0.1,0.1-0.2
		c0.2-0.3,0.5-0.5,0.8-0.8c0,0,0.1-0.1,0.1-0.1c0.3-0.3,0.6-0.6,1-0.8c-0.8-3-2.9-5.8-5.8-7.8c-3.3-2.4-7.2-3.4-10.9-3.1
		c-2.2,0.1-4.3,0.7-6.4,1.8c-0.1,0.1-0.2,0.1-0.4,0.2c-0.4,0.2-0.8,0.4-1.1,0.7c-4.4,2.8-7.5,7.6-7.5,13.9v1.8h26.8
		c0.5-1.3,1.1-2.6,1.9-3.7l0,0c0.2-0.3,0.5-0.7,0.7-1c0,0,0.1-0.1,0.1-0.1C217.8-110.3,218-110.5,218.2-110.8z"/>
	<path class="st2" d="M263.8-134.7c0,5.5,0.4,7.4-1.3,9.8c-2.3,3.3-6.9,4.2-10.3,1.8c-0.4-0.2-0.7-0.5-1-0.8
		c-2.7-2.8-2.2-5.6-2.2-10.8c2.7,1.1,7.2,2.1,9.2,0c1.5-1.5,3.9-1.6,5.4-0.1C263.7-134.8,263.7-134.8,263.8-134.7L263.8-134.7z"/>
	<path class="st3" d="M263.8-134.7c0,5.5,0.4,7.4-1.3,9.8c-2.9,2-6.9,1.7-9.4-0.8c-2.5-2.5-2.2-5.1-2.2-8.3c2.1,0.6,5.5,1.2,7.4-0.6
		c1.5-1.5,3.9-1.6,5.4-0.1C263.7-134.8,263.7-134.8,263.8-134.7L263.8-134.7z"/>
	<path class="st4" d="M263.8-134.7c-1.5-1.5-3.9-1.6-5.4-0.1c0,0-0.1,0.1-0.1,0.1c-2.8,2.8-9.2,0-9.2,0c0-4.1,3.3-7.4,7.4-7.4
		C260.5-142.1,263.8-138.8,263.8-134.7z"/>
	<g>
		<path class="st7" d="M263.8-134.7c-1.5-1.5-3.9-1.6-5.4-0.1c0,0-0.1,0.1-0.1,0.1c-0.7,0.7-1.7,1.1-2.7,1.2
			c-1.6-0.2-3.2-0.6-4.7-1.2c0-3.8,2.8-6.9,6.5-7.4C261-141.6,263.8-138.5,263.8-134.7z"/>
		<path class="st7" d="M237.9-127.3c-1.5-1.5-3.9-1.6-5.4-0.1c-0.1,0-0.1,0.1-0.1,0.1c-0.7,0.7-1.7,1.1-2.7,1.2
			c-1.6-0.2-3.2-0.6-4.7-1.2c0-3.8,2.8-6.9,6.5-7.4C235.2-134.3,237.9-131.1,237.9-127.3z"/>
		<path class="st7" d="M212-134.7c-1.5-1.5-3.9-1.6-5.4-0.1c-0.1,0-0.1,0.1-0.1,0.1c-0.7,0.7-1.7,1.1-2.7,1.2
			c-1.6-0.2-3.2-0.6-4.7-1.2c0-3.8,2.8-6.9,6.5-7.4C209.3-141.6,212.1-138.5,212-134.7z"/>
	</g>
</g>
<g>
	<path class="st8" d="M242.9-152c0,2.7-0.9,5.2-2.4,7.4c-7.1,9.4-22.1,4.4-22.1-7.4c0-3.9,1.8-7.5,4.9-9.8c5.4-4.1,13.1-3,17.2,2.4
		C242.1-157.3,242.9-154.7,242.9-152z"/>
	<path class="st9" d="M242.9-152c0,2.7-0.9,5.2-2.4,7.4c-5.4,4.1-13.1,3-17.2-2.4c-3.3-4.4-3.3-10.4,0-14.7c5.4-4.1,13.1-3,17.2,2.4
		C242.1-157.3,242.9-154.7,242.9-152z"/>
	<path class="st10" d="M236.8-154.5h-3.7v-3.7h-4.9v3.7h-3.7v4.9h3.7v3.7h4.9v-3.7h3.7V-154.5z"/>
</g>
<path class="st14" d="M384.2,166.2l-43.3-8.6c-2.7-9.5-6.6-18.6-11.3-27.4l24-36c2.9-4.5,2.5-10.4-1.4-14.3L320,47.8
	c-3.9-3.8-9.7-4.3-14.3-1.4l-36,24c-8.8-4.8-17.9-8.4-27.4-11.3l-8.6-43.3c-1.1-5.2-5.7-9.1-11.1-9.1h-45.3c-5.4,0-10,3.8-11.1,9.1
	l-8.6,43.3c-9.5,2.9-18.6,6.6-27.4,11.3l-36-24C89.7,43.5,83.8,44,80,47.8L47.8,80c-3.8,3.8-4.3,9.7-1.4,14.3l24,36
	c-4.8,8.8-8.6,17.9-11.3,27.4l-43.3,8.6c-5.2,1.1-9.1,5.7-9.1,11.1v45.3c0,5.4,3.8,10,9.1,11.1l43.3,8.6c2.7,9.5,6.6,18.6,11.3,27.4
	l-24,36c-2.9,4.5-2.5,10.4,1.4,14.3L80,352.2c3.8,3.9,9.7,4.3,14.3,1.4l36-24c8.8,4.8,17.9,8.4,27.4,11.3l8.6,43.3
	c1.1,5.2,5.7,9.1,11.1,9.1h45.3c5.4,0,10-3.9,11.1-9.1l8.6-43.3c9.5-2.9,18.6-6.6,27.4-11.3l36,24c4.5,2.9,10.4,2.5,14.3-1.4
	l32.2-32.2c3.9-3.9,4.3-9.7,1.4-14.3l-24-36c4.8-8.8,8.6-17.9,11.3-27.4l43.3-8.6c5.2-1.1,9.1-5.7,9.1-11.1v-45.3
	C393.3,171.9,389.4,167.4,384.2,166.2z M200,267.9c-37.4,0-67.9-30.6-67.9-67.9c0-37.4,30.6-67.9,67.9-67.9s67.9,30.6,67.9,67.9
	S237.4,267.9,200,267.9z"/>
<path class="st15" d="M393.3,177.4v45.3c0,5.4-3.9,10-9.1,11.1l-43.3,8.6c-2.7,9.5-6.6,18.6-11.3,27.4l24,36
	c2.9,4.5,2.5,10.4-1.4,14.3L320,352.2c-3.9,3.9-9.7,4.3-14.3,1.4l-36-24c-8.8,4.8-17.9,8.4-27.4,11.3l-8.6,43.3
	c-1.1,5.2-5.7,9.1-11.1,9.1H200V267.9c37.4,0,67.9-30.6,67.9-67.9c0-37.4-30.6-67.9-67.9-67.9V6.7h22.6c5.4,0,10,3.9,11.1,9.1
	l8.6,43.3c9.5,2.9,18.6,6.6,27.4,11.3l36-24c4.5-2.9,10.4-2.5,14.3,1.4L352.2,80c3.9,3.8,4.3,9.7,1.4,14.3l-24,36
	c4.8,8.8,8.6,17.9,11.3,27.4l43.3,8.6C389.4,167.4,393.3,171.9,393.3,177.4z"/>
<linearGradient id="SVGID_00000042731425363700277050000015420028639655341728_" gradientUnits="userSpaceOnUse" x1="288.2375" y1="250.8344" x2="111.7693" y2="148.9503" gradientTransform="matrix(1 0 0 -1 0 399.8898)">
	<stop  offset="0" style="stop-color:#00A09C"/>
	<stop  offset="0.3381" style="stop-color:#10B8B2"/>
	<stop  offset="0.7448" style="stop-color:#1FCFC7"/>
	<stop  offset="1" style="stop-color:#25D8CF"/>
</linearGradient>
<path style="fill:url(#SVGID_00000042731425363700277050000015420028639655341728_);" d="M200,98.1c-56.2,0-101.9,45.8-101.9,101.9
	S143.8,301.9,200,301.9S301.9,256.2,301.9,200S256.2,98.1,200,98.1z M200,256.6c-31.2,0-56.6-25.4-56.6-56.6s25.4-56.6,56.6-56.6
	s56.6,25.4,56.6,56.6S231.2,256.6,200,256.6z"/>
</svg>
