<?xml version="1.0" encoding="utf-8"?>
<!-- Generator: Adobe Illustrator 27.0.0, SVG Export Plug-In . SVG Version: 6.00 Build 0)  -->
<svg version="1.1" id="Layer_3" xmlns="http://www.w3.org/2000/svg" xmlns:xlink="http://www.w3.org/1999/xlink" x="0px" y="0px"
	 viewBox="0 0 512 512" style="enable-background:new 0 0 512 512;" xml:space="preserve">
<style type="text/css">
	.st0{fill:#DDEBFD;}
	.st1{fill:#BED9FD;}
	.st2{fill:#FC6559;}
	.st3{fill:url(#path1255_00000111157123119724413260000000786918105456526008_);}
	.st4{fill:url(#SVGID_1_);}
	.st5{fill:url(#SVGID_00000177460464068008852070000006000912649106999704_);}
	.st6{fill:url(#SVGID_00000041279678826600514640000012152130130477147823_);}
	.st7{fill:url(#SVGID_00000115514045148840445500000006444843479129551524_);}
</style>
<path class="st0" d="M343.4,109.4l-29.1-102H256H110.3C86.2,7.4,66.6,27,66.6,51.1v409.8c0,24.1,19.6,43.7,43.7,43.7H256h145.7
	c24.1,0,43.7-19.6,43.7-43.7V138.5L343.4,109.4z"/>
<path class="st1" d="M445.4,138.5h-102c-16,0-29.1-13.1-29.1-29.1V7.4c3.8,0,7.6,1.5,10.2,4.4L441,128.3
	C443.9,130.9,445.4,134.7,445.4,138.5z"/>
<path class="st2" d="M219,92.2h-22.1V70.1c0-4.3-3.5-7.8-7.8-7.8h-22c-4.3,0-7.8,3.5-7.8,7.8v22.1h-22.1c-4.3,0-7.8,3.5-7.8,7.8v22
	c0,4.3,3.5,7.8,7.8,7.8h22.1v22.1c0,4.3,3.5,7.8,7.8,7.8h22c4.3,0,7.8-3.5,7.8-7.8v-22.1H219c4.3,0,7.8-3.5,7.8-7.8v-22
	C226.9,95.7,223.4,92.2,219,92.2z"/>
<g id="g1253" transform="translate(118.064,69.8047)">
	
		<linearGradient id="path1255_00000169546769676244213000000011359621729739886215_" gradientUnits="userSpaceOnUse" x1="-78.0507" y1="685.8774" x2="17.4764" y2="685.8774" gradientTransform="matrix(1 0 0 1 236.128 -330)">
		<stop  offset="0" style="stop-color:#00A09C"/>
		<stop  offset="0.3381" style="stop-color:#10B8B2"/>
		<stop  offset="0.7448" style="stop-color:#1FCFC7"/>
		<stop  offset="1" style="stop-color:#25D8CF"/>
	</linearGradient>
	<path id="path1255" style="fill:url(#path1255_00000169546769676244213000000011359621729739886215_);" d="M166,377.6
		c3.7-6.3,7.5-12.5,11.4-18.7c2.9-4.6,5.8-9.1,8.8-13.6c1.1-1.5,2.4-3.4,3.2-4.3c0.6-0.7,1.2-1.5,2-2c0.7-0.5,1.1-0.6,1.5-0.3
		c-0.4-0.3,0.2,0.5,0.3,0.8c0.6,1.5,0.2,3.4,0.1,5c-0.3,3.4-0.7,6.8-1,10.1c-0.5,5.9-2.1,15,4.5,18.2c3.6,1.8,7.5-0.2,10.7-2
		c3.3-1.8,6.5-3.6,10-5.1c1-0.4,1.4-0.2,0-0.6c-0.6-0.1-0.1-0.7-0.1-0.1c0,0.7,0.9,2.2,1.2,3c0.8,2.5,1.4,5.1,2.7,7.4
		c5.5,9.6,21,6.2,29.6,3.4c5.2-1.7,2.9-9.9-2.3-8.2c-3.3,1.1-6.7,1.9-10.1,2.3c-2.5,0.3-5.2,0.5-7.7-0.3c-1.9-0.6-2.3-1.4-3-3.4
		c-1.6-4.5-2.7-12-8.8-12.3c-3.6-0.2-7.4,1.8-10.5,3.5c-1.7,1-3.4,2-5.2,3c-0.8,0.4-1.5,0.9-2.3,1.2c-1.7,0.7-0.3,0.3-0.4,0.5
		c0.2-1-0.1-2.5-0.1-3.5c0-1.7,0.1-3.3,0.2-5c0.2-3.3,0.6-6.5,0.9-9.8c0.6-6.2,0.7-14.6-6.8-16.5c-5.8-1.5-10.1,3-13.2,7.1
		c-3,4.1-5.8,8.3-8.5,12.6c-4.9,7.6-9.6,15.4-14.2,23.2C155.9,378.1,163.2,382.3,166,377.6"/>
</g>
<linearGradient id="SVGID_1_" gradientUnits="userSpaceOnUse" x1="156.6" y1="685.0001" x2="355.5" y2="685.0001" gradientTransform="matrix(1 0 0 1 0 -330)">
	<stop  offset="0" style="stop-color:#00A09C"/>
	<stop  offset="0.3381" style="stop-color:#10B8B2"/>
	<stop  offset="0.7448" style="stop-color:#1FCFC7"/>
	<stop  offset="1" style="stop-color:#25D8CF"/>
</linearGradient>
<path class="st4" d="M346.4,364.2H165.8c-5.1,0-9.2-4.1-9.2-9.2s4.1-9.2,9.2-9.2h180.5c5.1,0,9.2,4.1,9.2,9.2
	S351.4,364.2,346.4,364.2z"/>
<linearGradient id="SVGID_00000005979368044205420380000003852935422140988820_" gradientUnits="userSpaceOnUse" x1="156.5" y1="754.4" x2="255.9" y2="754.4" gradientTransform="matrix(1 0 0 1 0 -330)">
	<stop  offset="0" style="stop-color:#00A09C"/>
	<stop  offset="0.3381" style="stop-color:#10B8B2"/>
	<stop  offset="0.7448" style="stop-color:#1FCFC7"/>
	<stop  offset="1" style="stop-color:#25D8CF"/>
</linearGradient>
<path style="fill:url(#SVGID_00000005979368044205420380000003852935422140988820_);" d="M251.4,433.6h-90.3c-2.5,0-4.6-4.1-4.6-9.2
	s2.1-9.2,4.6-9.2h90.2c2.6,0,4.6,4.1,4.6,9.2S253.9,433.6,251.4,433.6z"/>
<linearGradient id="SVGID_00000023967112196408237490000014651696972523503245_" gradientUnits="userSpaceOnUse" x1="156.6" y1="546.1" x2="355.5" y2="546.1" gradientTransform="matrix(1 0 0 1 0 -330)">
	<stop  offset="0" style="stop-color:#00A09C"/>
	<stop  offset="0.3381" style="stop-color:#10B8B2"/>
	<stop  offset="0.7448" style="stop-color:#1FCFC7"/>
	<stop  offset="1" style="stop-color:#25D8CF"/>
</linearGradient>
<path style="fill:url(#SVGID_00000023967112196408237490000014651696972523503245_);" d="M346.4,225.3H165.8c-5.1,0-9.2-4.1-9.2-9.2
	s4.1-9.2,9.2-9.2h180.5c5.1,0,9.2,4.1,9.2,9.2S351.4,225.3,346.4,225.3z"/>
<linearGradient id="SVGID_00000125578687985347932170000004358349378417387649_" gradientUnits="userSpaceOnUse" x1="156.6" y1="615.6" x2="355.5" y2="615.6" gradientTransform="matrix(1 0 0 1 0 -330)">
	<stop  offset="0" style="stop-color:#00A09C"/>
	<stop  offset="0.3381" style="stop-color:#10B8B2"/>
	<stop  offset="0.7448" style="stop-color:#1FCFC7"/>
	<stop  offset="1" style="stop-color:#25D8CF"/>
</linearGradient>
<path style="fill:url(#SVGID_00000125578687985347932170000004358349378417387649_);" d="M346.4,294.8H165.8c-5.1,0-9.2-4.1-9.2-9.2
	s4.1-9.2,9.2-9.2h180.5c5.1,0,9.2,4.1,9.2,9.2C355.5,290.7,351.4,294.8,346.4,294.8z"/>
</svg>
