<?xml version="1.0" encoding="utf-8"?>
<!-- Generator: Adobe Illustrator 27.0.0, SVG Export Plug-In . SVG Version: 6.00 Build 0)  -->
<svg version="1.1" id="Capa_1" xmlns="http://www.w3.org/2000/svg" xmlns:xlink="http://www.w3.org/1999/xlink" x="0px" y="0px"
	 viewBox="0 0 200 200" style="enable-background:new 0 0 200 200;" xml:space="preserve">
<style type="text/css">
	.st0{fill:#31BEBE;}
	.st1{fill:#FFFFFF;}
</style>
<rect x="-2" y="-4" class="st0" width="203.2" height="206"/>
<g>
	<path class="st1" d="M50.2,159.5c-2.1-1-2.6-2.6-2.6-4.8c0.4-21.3,16.7-40.3,37.8-43.8c2.6-0.4,5.3-0.6,8-0.7
		c4.7-0.1,9.5-0.2,14.2,0c17.9,0.7,31.1,9.2,39.7,24.7c3.4,6.1,4.9,12.8,5.2,19.8c0.1,2.2-0.6,3.7-2.6,4.7
		C116.6,159.5,83.4,159.5,50.2,159.5z"/>
	<path class="st1" d="M68.6,71.9c0-17.3,14.1-31.4,31.5-31.4c17.3,0,31.4,14.1,31.4,31.4c0,17.3-14.1,31.4-31.5,31.4
		C82.7,103.2,68.6,89.1,68.6,71.9z"/>
</g>
</svg>
