<?xml version="1.0" encoding="utf-8"?>
<!-- Generator: Adobe Illustrator 27.0.0, SVG Export Plug-In . SVG Version: 6.00 Build 0)  -->
<svg version="1.1" id="Layer_1" xmlns="http://www.w3.org/2000/svg" xmlns:xlink="http://www.w3.org/1999/xlink" x="0px" y="0px"
	 viewBox="0 0 512 476" style="enable-background:new 0 0 512 476;" xml:space="preserve">
<style type="text/css">
	.st0{fill:#9EB7C7;}
	.st1{fill:#D7E8EF;}
	.st2{fill:#BDD3DD;}
	.st3{fill:#EDF4F6;}
	.st4{fill:url(#SVGID_1_);}
	.st5{fill:url(#SVGID_00000164472648678515524230000014608559059600822927_);}
	.st6{fill:url(#SVGID_00000140718131663278692860000013212278530429316522_);}
	.st7{fill:url(#SVGID_00000029015797134222089720000002075703500963319687_);}
	.st8{fill:url(#SVGID_00000010994040379919220540000006921385039950641820_);}
	.st9{fill:#FFFFFF;}
	.st10{fill:#D0D3D4;}
	.st11{fill:url(#SVGID_00000028310446831913456240000012599776006686057651_);}
</style>
<g>
	<g>
		<g>
			<g>
				<g>
					<polygon class="st0" points="330.5,131.4 438,22.8 335.9,136.5 					"/>
				</g>
			</g>
		</g>
		<path class="st1" d="M161.4,404.9l-88.7-83.6l194.2-206c7.1-7.6,19.1-7.9,26.6-0.8l61.3,57.7c7.6,7.1,7.9,19.1,0.8,26.6
			L161.4,404.9z"/>
		<path class="st2" d="M322.6,141.9l-28.9-27.3c-7.6-7.1-19.5-6.8-26.6,0.8l-194.2,206l28.9,27.3l194.2-206
			C303.1,135.1,315,134.7,322.6,141.9z"/>
		<path class="st3" d="M350.4,177c5,4.7,5.2,12.6,0.5,17.5L161.2,395.8L81.9,321l189.8-201.3c4.7-5,12.6-5.2,17.5-0.5L350.4,177
			 M354.9,172.3l-61.3-57.7c-7.6-7.1-19.5-6.8-26.6,0.8l-194.2,206l88.7,83.6l194.2-206C362.8,191.4,362.4,179.5,354.9,172.3
			L354.9,172.3z"/>
		
			<rect x="60.6" y="360.4" transform="matrix(0.686 -0.7276 0.7276 0.686 -254.1114 189.5734)" class="st1" width="63.9" height="57.7"/>
		
			<rect x="61.8" y="370.5" transform="matrix(0.686 -0.7276 0.7276 0.686 -281.802 179.4355)" class="st0" width="10.3" height="91.4"/>
		
			<rect x="94.7" y="283.7" transform="matrix(0.686 -0.7276 0.7276 0.686 -237.0431 195.7847)" class="st0" width="27.2" height="177.7"/>
		
			<rect x="134.5" y="375.8" transform="matrix(0.686 -0.7276 0.7276 0.686 -251.7702 236.4982)" class="st2" width="27.2" height="68.4"/>
		<path class="st0" d="M354.6,142.1L323.8,113c-1.2-1.1-3.1-1.1-4.2,0.1L308.4,125l35.2,33.2l11.2-11.8
			C355.9,145.1,355.8,143.2,354.6,142.1z"/>
		<path class="st1" d="M359.2,119.9l-13.5-12.7c-1-1-2.7-0.9-3.6,0.1l-11.4,12.1l17.2,16.3l11.4-12.1
			C360.3,122.5,360.2,120.9,359.2,119.9z"/>
	</g>
</g>
<g>
	
		<linearGradient id="SVGID_1_" gradientUnits="userSpaceOnUse" x1="459.4706" y1="1518.222" x2="425.1725" y2="1498.4199" gradientTransform="matrix(1 0 0 1 0 -1153.9999)">
		<stop  offset="0" style="stop-color:#00A09C"/>
		<stop  offset="0.3381" style="stop-color:#10B8B2"/>
		<stop  offset="0.7448" style="stop-color:#1FCFC7"/>
		<stop  offset="1" style="stop-color:#25D8CF"/>
	</linearGradient>
	<path class="st4" d="M461,356.7c-0.2,0.9-0.4,1.9-0.6,2.8c-1.9,8.3-6.3,15-13.4,19.6c-2.2,1.4-4.8,2.4-7.3,2.9
		c-4.1,0.9-7.2-0.7-9.3-4.3c-1.9-3.3-2.7-7-3.2-10.6c-0.8-7-1.3-14-0.1-21c0.9-5.6,2.6-10.9,6.3-15.3c1.4-1.7,3.2-3.3,5.1-4.4
		c4.5-2.6,9.6-1.7,13.7,2.3c4.4,4.2,6.5,9.7,7.8,15.6c0.4,1.9,0.7,3.8,1,5.7C461,352.1,461,354.4,461,356.7z"/>
	
		<linearGradient id="SVGID_00000113324003392000425050000004450774087038356381_" gradientUnits="userSpaceOnUse" x1="332.6795" y1="1518.2325" x2="294.3096" y2="1496.0797" gradientTransform="matrix(1 0 0 1 0 -1153.9999)">
		<stop  offset="0" style="stop-color:#00A09C"/>
		<stop  offset="0.3381" style="stop-color:#10B8B2"/>
		<stop  offset="0.7448" style="stop-color:#1FCFC7"/>
		<stop  offset="1" style="stop-color:#25D8CF"/>
	</linearGradient>
	<path style="fill:url(#SVGID_00000113324003392000425050000004450774087038356381_);" d="M294.4,349.8c0.6-2.9,1-5.7,1.7-8.6
		c1-3.8,2.6-7.3,5-10.4c0.1-0.1,0.2-0.2,0.3-0.4c6-7.4,14.4-7.4,20.4,0c4,5,6,10.8,6.6,17c0.9,8.6,0.6,17.2-1.5,25.6
		c-0.3,1.3-0.8,2.5-1.4,3.6c-2.3,4.7-6.2,6.5-11.3,5.1c-5.1-1.4-9-4.6-12.4-8.5c-3.9-4.6-6.4-9.9-7.2-15.9c0-0.2-0.2-0.5-0.3-0.7
		C294.4,354.4,294.4,352.1,294.4,349.8z"/>
	
		<linearGradient id="SVGID_00000072980691495418634520000008694736129869399214_" gradientUnits="userSpaceOnUse" x1="418.4171" y1="1577.0084" x2="339.7718" y2="1531.6025" gradientTransform="matrix(1 0 0 1 0 -1153.9999)">
		<stop  offset="0" style="stop-color:#00A09C"/>
		<stop  offset="0.3381" style="stop-color:#10B8B2"/>
		<stop  offset="0.7448" style="stop-color:#1FCFC7"/>
		<stop  offset="1" style="stop-color:#25D8CF"/>
	</linearGradient>
	<path style="fill:url(#SVGID_00000072980691495418634520000008694736129869399214_);" d="M379.8,353.6c7.5,0.1,15.8,3.7,23,9.7
		c10.5,8.8,17.9,19.7,20.1,33.3c2.3,14.2-1.3,26.8-13.5,35.8c-4.1,3-8.8,4.8-13.8,5.8c-0.8,0.2-2.1-0.1-2.6-0.6
		c-1.7-1.5-3.3-3.2-4.9-4.9c-2.5-2.7-4.7-5.6-7.3-8.3c-2.5-2.6-3.7-2.6-6.2,0s-4.8,5.6-7.3,8.3c-1.6,1.7-3.1,3.5-4.9,5
		c-0.7,0.6-1.9,0.8-2.8,0.6c-16.6-3.4-27.3-16.2-27.9-33.1c-0.4-11.8,4-21.9,10.7-31.1c6-8.2,13.4-14.5,23-18.2
		C369.5,354.3,373.5,353.6,379.8,353.6z M340.4,400.8c-0.1,2.9,0.9,4.2,2.6,4.3c1.8,0.1,3-1.1,3.1-3.3c0-0.4,0-0.9,0.1-1.3
		c2-15.6,17.8-33.4,31.6-32.7c1.7,0.1,2.9-1.5,2.7-3c-0.1-1.6-1.4-2.8-3.1-2.6c-2.6,0.2-5.2,0.5-7.7,1.3
		c-8.2,2.5-14.5,7.9-19.6,14.6C344.8,385,341.1,392.7,340.4,400.8z"/>
	
		<linearGradient id="SVGID_00000176024506238850216350000004504214594090582172_" gradientUnits="userSpaceOnUse" x1="420.1984" y1="1484.4451" x2="381.1278" y2="1461.8878" gradientTransform="matrix(1 0 0 1 0 -1153.9999)">
		<stop  offset="0" style="stop-color:#00A09C"/>
		<stop  offset="0.3381" style="stop-color:#10B8B2"/>
		<stop  offset="0.7448" style="stop-color:#1FCFC7"/>
		<stop  offset="1" style="stop-color:#25D8CF"/>
	</linearGradient>
	<path style="fill:url(#SVGID_00000176024506238850216350000004504214594090582172_);" d="M420.8,318.2c-0.1,8.7-1.9,15.9-6.6,22.2
		c-2.4,3.2-5.4,5.7-9.3,6.8c-5.8,1.7-10.8,0-15.1-4c-5-4.7-7.6-10.8-8.6-17.4c-1.3-8-0.5-15.8,3.1-23.2c1.6-3.2,3.7-6.1,6.5-8.4
		c6.4-5.1,14.3-4.9,20.4,0.6c5.4,4.9,7.9,11.2,9.1,18.2C420.6,314.9,420.7,317,420.8,318.2z"/>
	
		<linearGradient id="SVGID_00000003820808662934003450000013092891706806120322_" gradientUnits="userSpaceOnUse" x1="374.1809" y1="1484.3556" x2="335.1809" y2="1461.839" gradientTransform="matrix(1 0 0 1 0 -1153.9999)">
		<stop  offset="0" style="stop-color:#00A09C"/>
		<stop  offset="0.3381" style="stop-color:#10B8B2"/>
		<stop  offset="0.7448" style="stop-color:#1FCFC7"/>
		<stop  offset="1" style="stop-color:#25D8CF"/>
	</linearGradient>
	<path style="fill:url(#SVGID_00000003820808662934003450000013092891706806120322_);" d="M334.6,320.1c0.1-8.6,1.8-15.8,6.5-22.1
		c2.7-3.7,6.2-6.4,10.8-7.3c5.4-1,10,0.8,13.8,4.4c4.9,4.7,7.4,10.7,8.5,17.3c1.4,8.6,0.5,16.9-3.9,24.5c-1.4,2.4-3.2,4.7-5.2,6.6
		c-6.3,5.8-14.7,5.7-21,0c-5.4-4.9-8-11.2-9.1-18.2C334.8,323.3,334.7,321.2,334.6,320.1z"/>
	<path class="st9" d="M340.4,400.8c0.7-8.1,4.4-15.8,9.8-22.7c5.1-6.7,11.4-12.1,19.6-14.6c2.5-0.7,5.1-1,7.7-1.3
		c1.7-0.2,3,1,3.1,2.6c0.1,1.5-1,3.1-2.7,3c-13.9-0.7-29.6,17.1-31.6,32.7c-0.1,0.4-0.1,0.9-0.1,1.3c-0.1,2.2-1.3,3.4-3.1,3.3
		C341.3,405,340.2,403.6,340.4,400.8z"/>
</g>
<path class="st10" d="M300.9,134.7l-14.4-13.5c-3.7-3.5-9.5-3.3-12.9,0.4l-64.3,68.2l14.4,13.5l64.3-68.2
	C291.4,131.4,297.2,131.3,300.9,134.7z"/>
<rect x="332.3" y="62.7" transform="matrix(0.686 -0.7276 0.7276 0.686 77.046 309.9351)" class="st0" width="130.6" height="6.1"/>
<linearGradient id="SVGID_00000031201891178595918130000005125347872235492287_" gradientUnits="userSpaceOnUse" x1="209.3" y1="289.0755" x2="353.451" y2="289.0755" gradientTransform="matrix(1 0 0 -1 0 478)">
	<stop  offset="0" style="stop-color:#F99C52"/>
	<stop  offset="0.2704" style="stop-color:#F5964B"/>
	<stop  offset="0.6725" style="stop-color:#E88436"/>
	<stop  offset="1" style="stop-color:#DB7121"/>
</linearGradient>
<path style="fill:url(#SVGID_00000031201891178595918130000005125347872235492287_);" d="M209.3,189.8l67.4-71.5
	c1.8-1.9,4.7-1.9,6.6-0.2l68.7,64.8c1.9,1.8,1.9,4.7,0.2,6.6L284.8,261L209.3,189.8z"/>
<g>
	<rect x="285" y="136.5" transform="matrix(0.686 -0.7276 0.7276 0.686 -20.3384 256.9178)" class="st9" width="4.9" height="31"/>
	<rect x="263" y="159.9" transform="matrix(0.686 -0.7276 0.7276 0.686 -44.2863 248.1898)" class="st9" width="4.9" height="31"/>
	
		<rect x="240.9" y="183.4" transform="matrix(0.686 -0.7276 0.7276 0.686 -68.2613 239.5363)" class="st9" width="4.9" height="31"/>
	
		<rect x="218.9" y="206.7" transform="matrix(0.686 -0.7276 0.7276 0.686 -92.2092 230.8084)" class="st9" width="4.9" height="31"/>
	
		<rect x="196.8" y="230.1" transform="matrix(0.686 -0.7276 0.7276 0.686 -116.1571 222.0805)" class="st9" width="4.9" height="31"/>
	
		<rect x="174.8" y="253.6" transform="matrix(0.686 -0.7276 0.7276 0.686 -140.1321 213.427)" class="st9" width="4.9" height="31"/>
	<rect x="152.7" y="277" transform="matrix(0.686 -0.7276 0.7276 0.686 -164.08 204.6991)" class="st9" width="4.9" height="31"/>
	
		<rect x="130.6" y="300.3" transform="matrix(0.686 -0.7276 0.7276 0.686 -188.0279 195.9712)" class="st9" width="4.9" height="31"/>
</g>
</svg>
